<svg width="409" height="409" viewBox="0 0 409 409" fill="none" xmlns="http://www.w3.org/2000/svg">
<path d="M357.375 204.5C357.375 285.852 288.948 351.831 204.5 351.831C120.052 351.831 51.625 285.852 51.625 204.5C51.625 123.148 120.052 57.1687 204.5 57.1687C288.948 57.1687 357.375 123.148 357.375 204.5Z" stroke="#DEE3ED"/>
<path d="M203.12 352.725C287.728 352.725 356.316 286.616 356.316 205.067C356.316 123.517 287.728 57.4077 203.12 57.4077C118.512 57.4077 49.9236 123.517 49.9236 205.067C49.9236 286.616 118.512 352.725 203.12 352.725Z" fill="#F4F6F9"/>
<path d="M119.76 263.078L88.8809 221.254C88.1694 220.427 87.2794 219.76 86.2728 219.298C85.2663 218.836 84.1673 218.591 83.0527 218.581L55.6753 219.406C55.1864 219.374 54.6977 219.472 54.2626 219.689C53.8276 219.906 53.4629 220.235 53.2085 220.638C53.2085 220.737 53.1446 220.835 53.119 220.922C52.9774 221.065 52.857 221.227 52.7611 221.402C52.5892 221.796 52.5351 222.229 52.6052 222.652C52.6752 223.074 52.8665 223.469 53.1574 223.792L84.0496 265.604C84.7361 266.419 85.5978 267.081 86.5752 267.545C87.5526 268.008 88.6227 268.262 89.7117 268.289H89.8651L117.255 267.464C117.742 267.497 118.23 267.399 118.663 267.182C119.096 266.964 119.458 266.636 119.709 266.232C119.749 266.141 119.779 266.046 119.799 265.948C119.948 265.809 120.073 265.646 120.169 265.468C120.34 265.073 120.392 264.639 120.319 264.217C120.247 263.794 120.053 263.4 119.76 263.078Z" fill="#0F265C"/>
<path d="M60.2125 226.317C60.5876 226.755 61.058 227.108 61.5904 227.35C62.1227 227.593 62.7039 227.72 63.2928 227.722C64.4048 227.722 64.8138 227.007 64.2131 226.194C63.838 225.757 63.3676 225.404 62.8353 225.161C62.3029 224.919 61.7217 224.792 61.1328 224.79C60.0208 224.815 59.6118 225.504 60.2125 226.317Z" fill="#F4F6F9"/>
<path d="M316.758 191.38C301.548 185.849 286.786 180.859 284.702 180.428C284.191 180.33 283.872 180.428 283.731 180.798C281.402 180.507 279.106 180.016 276.867 179.332L276.203 141.08C276.203 135.853 274.048 130.839 270.213 127.143C266.378 123.446 261.176 121.369 255.753 121.369C253.067 121.369 250.408 121.879 247.927 122.87C245.446 123.861 243.191 125.312 241.292 127.143C239.394 128.973 237.887 131.146 236.859 133.537C235.832 135.929 235.303 138.492 235.303 141.08V179.652L233.871 180.182L232.529 180.687C232.465 180.59 232.372 180.513 232.264 180.465C232.155 180.417 232.034 180.4 231.916 180.416L231.622 180.539H231.52C227.353 182.375 193.329 198.279 192.243 201.642C192.243 201.74 192.089 201.95 191.923 202.258C190.882 204.179 189.981 206.167 189.226 208.208C188.217 210.672 186.811 213.937 185.188 217.694C183.564 221.451 181.698 225.689 179.781 230.013C172.112 247.396 163.485 267.106 161.414 273.956C161.313 274.457 161.323 274.973 161.444 275.47C161.565 275.967 161.795 276.434 162.117 276.839C163.628 278.798 165.458 280.508 167.537 281.902C165.683 288.961 164.648 293.593 163.549 299.728C162.795 299.432 162.002 299.161 161.172 298.89C158.462 298.052 155.74 297.264 152.851 296.426C141.348 293.1 128.183 289.331 110.008 279.598C110.008 274.843 108.257 264.988 96.9969 248.714C96.92 248.592 96.8843 248.45 96.8947 248.307L97.866 238.206C97.866 237.91 98.7735 230.814 96.8052 227.303C96.6271 226.984 96.3544 226.724 96.0221 226.555C95.6898 226.386 95.3127 226.316 94.9391 226.354C94.5588 226.393 94.1986 226.539 93.9033 226.773C93.608 227.008 93.3904 227.32 93.2776 227.673L87.6283 245.609C87.3068 242.137 87.4788 238.639 88.1395 235.212C88.6146 232.884 88.7394 230.503 88.5102 228.141C88.2162 226.391 87.6666 225.381 86.8102 225.049C86.4567 224.937 86.0782 224.92 85.7156 225.001C85.353 225.081 85.02 225.255 84.7525 225.504C84.224 225.906 83.7886 226.409 83.4744 226.983C80.3073 232.986 78.3388 239.509 77.6717 246.213C76.0868 243.934 75.7033 239.006 75.9206 234.682C75.9206 233.992 75.9206 233.302 75.9206 232.613C75.8567 222.252 74.2335 221.993 73.62 221.895C72.687 221.747 71.5494 222.375 69.5683 227.894C65.8107 238.378 65.9257 253.112 66.3219 260.947C66.8088 267.798 69.2164 274.394 73.2877 280.029C73.3114 280.1 73.3458 280.166 73.3899 280.227C73.5305 280.424 73.6839 280.621 73.8373 280.806V280.892C83.5127 293.31 98.7607 301.835 98.9013 301.835L156.417 334.936C162.335 338.718 167.92 340.616 173.033 340.616C174.672 340.621 176.305 340.418 177.889 340.012C183.154 338.498 187.58 335.034 190.198 330.378C195.151 320.743 199.284 310.735 202.557 300.455C203.51 317.547 202.326 334.687 199.03 351.506C199.03 351.715 198.94 351.912 198.902 352.122C198.877 352.234 198.887 352.351 198.93 352.459C198.973 352.566 199.048 352.659 199.145 352.726H199.886C200.024 352.637 200.121 352.5 200.154 352.344C200.154 352.27 200.154 352.183 200.154 352.11C206.545 321.619 205.126 285.856 196.026 245.794C196 245.673 195.938 245.561 195.847 245.474L193.048 242.911C192.989 242.854 192.918 242.808 192.84 242.777C192.762 242.745 192.679 242.729 192.594 242.729C192.51 242.729 192.426 242.745 192.349 242.777C192.271 242.808 192.2 242.854 192.141 242.911C192.081 242.969 192.033 243.037 192.001 243.112C191.968 243.187 191.952 243.267 191.952 243.349C191.952 243.43 191.968 243.511 192.001 243.586C192.033 243.661 192.081 243.729 192.141 243.786L194.799 246.25C198.626 262.786 201.126 279.582 202.276 296.488C192.767 294.776 177.148 287.458 168.534 281.274C168.493 281.23 168.445 281.193 168.393 281.163C166.336 279.819 164.526 278.154 163.038 276.235C162.819 275.972 162.657 275.67 162.561 275.347C162.464 275.023 162.435 274.685 162.475 274.35C164.533 267.575 173.173 247.901 180.791 230.543C184.625 221.821 188.229 213.592 190.249 208.688C190.982 206.688 191.862 204.741 192.882 202.861C193.24 202.196 193.304 202.061 193.291 201.938C194.313 199.646 222.343 186.132 230.587 182.227C229.973 186.736 232.913 198.34 234.421 203.81C234.442 203.896 234.482 203.976 234.54 204.044C234.597 204.113 234.67 204.167 234.753 204.204C234.836 204.238 234.925 204.255 235.015 204.255C235.105 204.255 235.194 204.238 235.277 204.204C249.643 198.537 282.427 185.344 284.907 181.66C292.346 183.557 341.783 201.26 344.391 203.983C344.161 206.446 341.093 242.32 337.438 275.681C337.374 276.21 337.31 276.74 337.259 277.258L338 276.026C338.281 275.533 338.575 275.028 338.844 274.535C338.92 273.981 338.972 273.426 339.035 272.872L339.227 271.172C343.228 234.214 345.618 204.919 345.618 203.958C345.925 203.33 346.001 202.024 316.758 191.38ZM231.967 182.301L232.593 182.054C233.871 181.561 233.871 181.562 234.37 181.377L236.223 180.687C236.342 180.642 236.445 180.565 236.518 180.464C236.591 180.363 236.63 180.243 236.632 180.12V141.117C236.632 136.216 238.652 131.516 242.247 128.051C245.843 124.585 250.719 122.638 255.804 122.638C260.889 122.638 265.765 124.585 269.361 128.051C272.956 131.516 274.976 136.216 274.976 141.117L275.64 179.837C275.641 179.968 275.686 180.096 275.77 180.201C275.853 180.305 275.969 180.381 276.101 180.416C278.441 181.149 280.845 181.677 283.284 181.993C278.452 185.467 252.673 196.221 235.737 202.935C233.36 194.3 231.494 184.851 231.967 182.301ZM189.188 329.898C186.709 334.223 182.585 337.451 177.685 338.903C171.678 340.443 164.827 338.792 157.235 333.976L99.7193 300.837C99.5659 300.763 84.4713 292.361 74.962 280.103C70.7022 274.498 68.1803 267.842 67.6895 260.91C67.2933 253.161 67.1782 238.612 70.872 228.313C72.5975 223.472 73.4283 223.164 73.4283 223.127C73.914 223.385 74.6425 226.12 74.7064 232.637C74.7064 233.315 74.7064 233.98 74.7064 234.645C74.5402 237.885 74.5147 245.412 77.5822 247.913C77.458 249.355 77.4282 250.804 77.4927 252.249C77.5025 252.403 77.5728 252.547 77.6892 252.653C77.8056 252.758 77.9593 252.816 78.119 252.816C78.2025 252.812 78.2841 252.791 78.3591 252.755C78.4341 252.72 78.501 252.67 78.5558 252.609C78.6106 252.548 78.6522 252.478 78.6781 252.401C78.7041 252.324 78.7139 252.244 78.7069 252.163C78.6581 250.808 78.688 249.45 78.7964 248.098C78.856 248.001 78.8875 247.89 78.8875 247.778C78.8875 247.665 78.856 247.554 78.7964 247.457C79.349 240.545 81.3077 233.806 84.5608 227.623C84.7735 227.207 85.079 226.841 85.4554 226.551C85.6472 226.404 86.0178 226.182 86.2479 226.268C86.4779 226.354 86.8614 226.638 87.1554 228.412C87.3627 230.651 87.2379 232.908 86.7847 235.113C85.9442 239.41 85.9182 243.817 86.708 248.122C86.7207 248.204 86.756 248.281 86.8102 248.344L86.0945 250.611C86.0465 250.766 86.0639 250.933 86.1428 251.076C86.2218 251.219 86.3559 251.326 86.5163 251.375C86.679 251.421 86.8542 251.405 87.0045 251.329C87.1549 251.253 87.2686 251.124 87.3215 250.968L94.4918 228.202C94.5293 228.083 94.6028 227.977 94.7029 227.898C94.8031 227.819 94.9253 227.77 95.0542 227.759C95.1771 227.741 95.3026 227.761 95.4129 227.817C95.5231 227.872 95.6123 227.959 95.6677 228.067C97.4443 231.183 96.6007 238.156 96.5879 238.242L95.6037 248.369C95.5592 248.803 95.6721 249.238 95.9233 249.601C107.235 265.973 108.768 275.705 108.705 280.066C108.718 280.986 108.593 281.903 108.334 282.789C108.303 282.863 108.288 282.943 108.289 283.023C108.29 283.103 108.308 283.182 108.341 283.255C108.375 283.329 108.423 283.395 108.483 283.45C108.543 283.506 108.614 283.549 108.692 283.577C108.767 283.595 108.846 283.595 108.922 283.577C109.051 283.577 109.177 283.539 109.284 283.469C109.391 283.398 109.474 283.299 109.523 283.183C109.754 282.505 109.896 281.801 109.944 281.089C127.953 290.673 140.99 294.418 152.506 297.732C155.382 298.558 158.091 299.334 160.788 300.196C173.851 304.286 174.975 312.207 174.975 312.294C174.997 312.443 175.073 312.58 175.19 312.679C175.308 312.779 175.458 312.834 175.614 312.836H175.691C175.859 312.817 176.012 312.736 176.117 312.609C176.222 312.482 176.271 312.32 176.253 312.158C176.253 311.825 175.282 304.89 164.75 300.356C165.824 294.258 166.846 289.675 168.585 282.838C177.532 288.998 192.78 296.131 202.148 297.831C198.76 308.848 194.425 319.574 189.188 329.898Z" fill="#0F265C"/>
<path d="M285.15 181.759C282.67 185.454 249.886 198.636 235.52 204.303C235.437 204.336 235.348 204.354 235.258 204.354C235.168 204.354 235.079 204.336 234.996 204.303C234.913 204.266 234.84 204.211 234.783 204.143C234.725 204.074 234.685 203.994 234.664 203.909C233.168 198.439 230.229 186.834 230.829 182.325C222.586 186.169 194.556 199.683 193.534 202.036C193.534 202.159 193.534 202.295 193.125 202.96C192.105 204.84 191.225 206.787 190.492 208.787C188.472 213.715 184.855 221.919 181.034 230.642C173.365 247.999 164.776 267.673 162.718 274.449C162.678 274.783 162.707 275.122 162.804 275.445C162.9 275.769 163.062 276.071 163.281 276.334C164.769 278.252 166.579 279.918 168.636 281.261C168.688 281.291 168.736 281.329 168.777 281.372C177.391 287.532 193.061 294.923 202.519 296.586C201.369 279.68 198.869 262.885 195.042 246.349L192.383 243.885C192.324 243.827 192.276 243.759 192.244 243.684C192.211 243.609 192.194 243.529 192.194 243.447C192.194 243.366 192.211 243.285 192.244 243.21C192.276 243.135 192.324 243.067 192.383 243.01C192.443 242.952 192.514 242.907 192.591 242.875C192.669 242.844 192.753 242.828 192.837 242.828C192.922 242.828 193.005 242.844 193.083 242.875C193.161 242.907 193.232 242.952 193.291 243.01L196.09 245.572C196.181 245.66 196.243 245.771 196.269 245.893C205.369 285.955 206.75 321.718 200.397 352.208C201.42 352.208 202.442 352.208 203.478 352.208C230.901 352.217 257.823 345.126 281.43 331.677C305.038 318.228 324.465 298.915 337.681 275.755C341.336 242.394 344.404 206.471 344.634 204.056C342.026 201.359 292.64 183.656 285.15 181.759Z" fill="white"/>
<path d="M168.661 282.814C177.608 288.973 192.856 296.106 202.225 297.806C198.802 308.814 194.432 319.528 189.163 329.836C186.683 334.161 182.559 337.39 177.659 338.842C171.652 340.382 164.802 338.731 157.209 333.914L99.6939 300.775C99.5405 300.701 84.4459 292.299 74.9366 280.042C70.6768 274.436 68.1549 267.781 67.6641 260.848C67.2679 253.1 67.1528 238.55 70.8466 228.252C72.5721 223.41 73.4028 223.102 73.4028 223.065C73.8885 223.324 74.6171 226.059 74.681 232.576C74.681 233.253 74.681 233.918 74.681 234.584C74.5148 237.824 74.4893 245.351 77.5568 247.852C77.4326 249.294 77.4027 250.742 77.4673 252.188C77.477 252.342 77.5473 252.486 77.6637 252.591C77.7802 252.696 77.9339 252.755 78.0936 252.755C78.177 252.75 78.2587 252.729 78.3337 252.694C78.4087 252.658 78.4756 252.608 78.5304 252.548C78.5852 252.487 78.6268 252.416 78.6527 252.339C78.6787 252.263 78.6885 252.182 78.6815 252.102C78.6327 250.746 78.6626 249.389 78.771 248.036C78.8306 247.939 78.862 247.829 78.862 247.716C78.862 247.603 78.8306 247.493 78.771 247.396C79.3236 240.484 81.2822 233.744 84.5353 227.562C84.7481 227.145 85.0536 226.779 85.43 226.49C85.6217 226.342 85.9924 226.12 86.2224 226.206C86.4525 226.293 86.8359 226.576 87.1299 228.35C87.3373 230.59 87.2125 232.846 86.7593 235.052C85.9187 239.348 85.8927 243.756 86.6825 248.061C86.6952 248.142 86.7306 248.219 86.7848 248.283L86.0691 250.549C86.0211 250.705 86.0385 250.872 86.1174 251.015C86.1963 251.158 86.3305 251.265 86.4908 251.313C86.6535 251.36 86.8287 251.344 86.9791 251.268C87.1295 251.192 87.2432 251.062 87.2961 250.907L94.4663 228.141C94.5038 228.021 94.5773 227.915 94.6775 227.836C94.7776 227.757 94.8999 227.709 95.0287 227.697C95.1516 227.679 95.2772 227.7 95.3874 227.755C95.4977 227.81 95.5868 227.898 95.6422 228.005C97.4188 231.122 96.5752 238.095 96.5625 238.181L95.5783 248.307C95.5338 248.741 95.6467 249.177 95.8979 249.539C107.209 265.912 108.743 275.644 108.679 280.005C108.692 280.925 108.568 281.842 108.308 282.727C108.278 282.802 108.262 282.881 108.264 282.961C108.265 283.041 108.283 283.12 108.316 283.194C108.349 283.267 108.397 283.334 108.458 283.389C108.518 283.444 108.589 283.487 108.666 283.516C108.742 283.533 108.821 283.533 108.896 283.516C109.026 283.515 109.152 283.477 109.259 283.407C109.366 283.337 109.449 283.237 109.497 283.122C109.729 282.444 109.871 281.74 109.919 281.027C127.928 290.612 140.965 294.357 152.48 297.671C155.356 298.496 158.066 299.272 160.763 300.134C173.825 304.224 174.95 312.146 174.95 312.232C174.971 312.381 175.048 312.518 175.165 312.618C175.282 312.717 175.433 312.773 175.589 312.774H175.666C175.833 312.755 175.986 312.674 176.092 312.547C176.197 312.42 176.246 312.258 176.228 312.097C176.228 311.764 175.257 304.828 164.725 300.295C165.875 294.234 166.898 289.651 168.661 282.814Z" fill="white"/>
<path d="M235.674 202.911C233.36 194.287 231.494 184.851 231.967 182.301L232.593 182.054C233.871 181.561 233.871 181.562 234.37 181.377L236.223 180.687C236.342 180.643 236.445 180.565 236.518 180.464C236.591 180.363 236.631 180.243 236.632 180.12V141.117C236.632 136.216 238.652 131.516 242.248 128.051C245.843 124.585 250.719 122.638 255.804 122.638C260.889 122.638 265.765 124.585 269.361 128.051C272.956 131.516 274.976 136.216 274.976 141.117L275.641 179.837C275.641 179.969 275.687 180.096 275.77 180.201C275.853 180.305 275.969 180.381 276.101 180.416C278.441 181.149 280.845 181.677 283.284 181.993C278.389 185.479 252.609 196.234 235.674 202.911Z" fill="white"/>
<path d="M203.682 352.257C288.29 352.257 356.878 286.148 356.878 204.599C356.878 123.049 288.29 56.9397 203.682 56.9397C119.074 56.9397 50.4859 123.049 50.4859 204.599C50.4859 286.148 119.074 352.257 203.682 352.257Z" stroke="#DEE3ED" stroke-miterlimit="10"/>
<path d="M290.007 99.9832C290.301 95.5852 290.428 91.5075 290.377 87.8364C290.366 84.7462 289.685 81.6924 288.378 78.8708C287.07 76.0492 285.165 73.5221 282.785 71.4517C281.175 70.1091 279.332 69.05 277.34 68.3227C277.072 67.8171 276.746 67.3419 276.369 66.9059C274.417 65.0693 272.094 63.6393 269.544 62.705C268.534 62.2615 267.576 61.8304 266.694 61.3623L265.492 60.734C263.982 60.0181 262.529 59.1946 261.147 58.2701C259.844 57.2536 258.642 56.1237 257.555 54.8946L256.673 53.9584C255.754 52.9766 254.9 51.9397 254.117 50.8539C253.644 50.2379 253.171 49.622 252.673 49.0183C250.204 45.7113 246.568 43.3855 242.448 42.4769C239.909 41.87 237.268 41.7756 234.691 42.1996C232.113 42.6236 229.654 43.5569 227.468 44.9407C222.355 48.2792 221.231 51.7039 220.988 53.1206C218.706 53.0599 216.44 53.514 214.372 54.4465C212.304 55.379 210.49 56.7644 209.076 58.4919C205.817 62.1877 203.503 69.3574 207.721 77.1555C208.718 79.1571 210.115 80.9493 211.833 82.4291C213.55 83.9089 215.554 85.0473 217.729 85.779C214.75 90.9229 213.188 96.7164 213.191 102.607C213.191 106.044 213.191 108.767 213.268 111.428C213.268 111.563 213.421 125.792 214.214 140.674C214.904 153.831 220.336 161.617 230.829 164.684C233.588 165.449 236.446 165.822 239.316 165.793C245.611 165.619 251.843 164.527 257.798 162.553C265.71 160.089 273.135 153.129 277.903 144.727C278.043 146.168 278.197 147.56 278.325 148.866C278.333 148.969 278.369 149.067 278.43 149.151C278.49 149.236 278.573 149.303 278.67 149.347C278.812 149.416 278.97 149.45 279.13 149.445C279.367 149.444 279.6 149.384 279.807 149.273C281.801 148.324 283.757 143.113 285.457 134.354C286.364 129.685 287.156 125.028 287.821 120.495C290.618 117.628 292.63 114.135 293.675 110.331C294.296 108.455 294.275 106.437 293.614 104.573C292.954 102.71 291.689 101.101 290.007 99.9832Z" fill="#0F265C"/>
<path d="M214.431 102.472C214.422 96.6971 215.987 91.0216 218.969 86.0131C221.514 86.6408 224.141 86.9023 226.765 86.7892C234.932 86.5552 241.093 83.6108 247.982 79.6687C250.504 80.6128 252.895 81.8542 255.101 83.3645C261.39 87.6516 267.486 96.4968 266.937 106.586C266.943 106.635 266.943 106.685 266.937 106.734C266.438 123.254 254.628 132.851 246.487 133.27C245.285 132.728 237.361 129.389 229.564 130.19C224.528 130.707 221.09 133.603 219.045 135.34C218.571 135.768 218.063 136.159 217.524 136.51C215.594 130.35 214.597 113.522 214.495 111.526C214.444 108.804 214.418 105.983 214.431 102.472Z" fill="white"/>
<path d="M279.296 102.164C277.8 105.773 278.12 109.715 278.465 113.879C278.772 117.698 279.091 121.628 277.992 125.484C285.661 121.973 290.313 116.984 292.397 109.876C292.918 108.27 292.898 106.547 292.34 104.954C291.782 103.36 290.715 101.978 289.291 101.006C286.415 99.1579 282.785 99.5767 279.296 102.164Z" fill="white"/>
<path d="M240.134 135.66C240.14 135.627 240.14 135.594 240.134 135.561C240.147 135.509 240.147 135.454 240.134 135.401C240.141 135.373 240.141 135.343 240.134 135.315C240.139 135.266 240.139 135.216 240.134 135.167L240.045 135.081L239.955 134.995H239.827C239.786 134.983 239.741 134.983 239.7 134.995H239.418C234.543 136.113 229.539 136.623 224.528 136.51H224.4H224.273C224.163 136.546 224.065 136.607 223.987 136.689C223.909 136.771 223.853 136.87 223.825 136.978C223.818 137.019 223.818 137.06 223.825 137.101C223.825 137.101 223.825 137.101 223.825 137.2C223.813 137.252 223.813 137.307 223.825 137.36C223.846 137.411 223.871 137.461 223.902 137.508V137.582C224.03 137.742 227.148 141.277 231.571 141.277H231.877C234.868 141.154 237.642 139.393 240.134 136.029C240.132 135.984 240.132 135.939 240.134 135.894V135.66ZM231.711 139.811H231.456C229.501 139.724 227.635 138.998 226.164 137.754C230.029 137.678 233.879 137.266 237.667 136.522C236.964 137.437 236.072 138.202 235.047 138.768C234.022 139.334 232.886 139.69 231.711 139.811Z" fill="white"/>
<path d="M215.224 99.6136C215.074 99.6155 214.928 99.5655 214.813 99.4728C214.698 99.3802 214.622 99.2509 214.597 99.1085C214.567 98.9484 214.604 98.7835 214.7 98.6496C214.796 98.5158 214.943 98.4238 215.109 98.3938L218.943 97.741C219.109 97.7155 219.278 97.7524 219.416 97.8442C219.554 97.936 219.65 98.0756 219.684 98.2338C219.699 98.314 219.697 98.396 219.679 98.4754C219.66 98.5547 219.626 98.6298 219.577 98.6963C219.528 98.7627 219.466 98.8192 219.395 98.8624C219.323 98.9057 219.243 98.9349 219.16 98.9483L215.326 99.6136H215.224Z" fill="#0F265C"/>
<path d="M237.501 97.0759C237.336 97.076 237.177 97.0145 237.058 96.9043C236.939 96.794 236.869 96.6436 236.862 96.4846C236.859 96.4037 236.872 96.3228 236.901 96.2468C236.93 96.1708 236.974 96.1012 237.031 96.0417C237.088 95.9822 237.157 95.9341 237.233 95.9002C237.309 95.8663 237.392 95.8471 237.476 95.8439L247.062 95.536C247.145 95.5327 247.228 95.5455 247.306 95.5736C247.384 95.6017 247.456 95.6445 247.517 95.6996C247.577 95.7547 247.626 95.8209 247.66 95.8943C247.694 95.9678 247.712 96.0469 247.714 96.1273C247.717 96.2082 247.704 96.289 247.675 96.365C247.646 96.441 247.602 96.5106 247.545 96.5701C247.488 96.6296 247.419 96.6777 247.343 96.7117C247.266 96.7456 247.184 96.7647 247.1 96.7679L237.514 97.0759H237.501Z" fill="#0F265C"/>
<path d="M281.827 95.4865C278.81 95.0677 253.708 98.6526 248.659 99.3918C246.665 99.0848 244.633 99.0848 242.639 99.3918C240.053 99.5231 237.51 100.086 235.124 101.055C234.625 101.252 234.14 101.461 233.667 101.671C231.758 102.612 229.696 103.228 227.57 103.494C225.492 103.677 223.397 103.455 221.41 102.841C219.831 102.33 218.164 102.12 216.502 102.225C215.1 102.241 213.701 102.327 212.309 102.484C210.168 102.561 208.059 103.012 206.085 103.814C204.763 104.023 203.424 104.118 202.084 104.098C201.786 104.092 201.493 104.177 201.248 104.34C201.002 104.504 200.816 104.738 200.717 105.009C200.623 105.285 200.622 105.583 200.714 105.859C200.806 106.136 200.986 106.377 201.228 106.549C201.921 107.054 202.445 107.744 202.736 108.533C202.414 110.411 202.384 112.325 202.647 114.212C203.299 120.162 207.35 123.809 213.153 123.809C213.626 123.809 214.124 123.809 214.636 123.735C221.116 123.069 224.746 119.177 225.436 112.155C225.436 111.637 225.5 111.157 225.512 110.689C225.627 109.937 226.957 108.964 228.606 108.779C229.168 108.661 229.756 108.729 230.273 108.973C230.79 109.216 231.207 109.621 231.456 110.122C231.486 110.198 231.529 110.269 231.584 110.331C231.673 110.713 231.788 111.095 231.916 111.489C233.91 117.649 237.744 120.729 243.304 120.729C243.864 120.726 244.423 120.693 244.978 120.63C246.438 120.544 247.864 120.172 249.17 119.537C250.475 118.901 251.632 118.016 252.57 116.934C254.338 114.627 255.083 111.738 254.641 108.902C254.641 108.582 254.564 108.286 254.526 107.978C254.577 107.823 254.603 107.661 254.603 107.498C254.603 107.498 254.603 107.215 254.603 106.808C254.539 103.506 258.961 100.907 259.012 100.87C259.148 100.792 259.269 100.692 259.37 100.574C269.429 99.2069 280.024 97.9011 281.507 98.1105C282.99 98.32 283.897 102.459 283.539 105.699C283.518 105.878 283.535 106.059 283.588 106.231C283.642 106.404 283.731 106.564 283.85 106.702C283.97 106.84 284.117 106.953 284.283 107.035C284.45 107.117 284.631 107.165 284.817 107.178H284.971C285.319 107.176 285.654 107.048 285.909 106.82C286.165 106.592 286.322 106.28 286.351 105.946C286.658 102.25 285.84 96.0039 281.827 95.4865ZM222.637 111.945C222.074 117.674 219.441 120.569 214.329 121.098C209.216 121.628 205.957 118.942 205.382 113.978C205.382 113.596 205.318 113.263 205.293 112.918C205.267 112.573 205.382 111.994 205.433 111.526C206.136 109.407 208.974 106.709 210.546 105.712C211.44 105.502 212.003 105.33 212.079 105.305H212.22H212.514C213.816 105.15 215.126 105.063 216.438 105.046C218.278 105.317 221.065 106.106 221.716 106.907C222.588 108.443 222.912 110.214 222.637 111.945ZM250.359 115.308C249.648 116.104 248.778 116.753 247.801 117.217C246.824 117.68 245.759 117.949 244.672 118.006C239.559 118.536 236.351 116.22 234.574 110.738C233.769 108.274 233.744 106.402 234.485 105.145C236.185 103.957 238.095 103.076 240.121 102.546C240.202 102.516 240.279 102.479 240.351 102.435C241.182 102.311 242.051 102.213 242.908 102.114C244.186 101.991 245.387 101.868 246.41 101.868C247.157 101.843 247.902 101.952 248.608 102.188C249.206 102.553 249.752 102.992 250.231 103.494C251.205 105.268 251.751 107.23 251.829 109.235C252.192 111.367 251.663 113.551 250.359 115.308Z" fill="#FFDD00"/>
<path d="M226.484 108.607C226.484 108.607 217.345 120.606 217.537 122.885C217.729 125.164 229.794 128.354 229.794 128.354" fill="white"/>
<path d="M229.858 128.97C229.799 128.982 229.738 128.982 229.679 128.97C226.765 128.207 217.243 125.484 216.898 122.983C216.553 120.482 224.362 110.307 225.909 108.2C226.012 108.072 226.164 107.988 226.33 107.965C226.497 107.942 226.667 107.982 226.803 108.077C226.938 108.175 227.028 108.32 227.054 108.481C227.081 108.642 227.041 108.806 226.944 108.939C223.199 113.867 217.997 121.369 218.176 122.786C218.291 123.907 224.362 126.248 229.96 127.714C230.042 127.735 230.119 127.772 230.185 127.822C230.252 127.872 230.308 127.935 230.35 128.006C230.391 128.077 230.418 128.155 230.428 128.236C230.438 128.317 230.431 128.399 230.408 128.478C230.384 128.606 230.317 128.723 230.218 128.812C230.119 128.901 229.993 128.957 229.858 128.97Z" fill="#0F265C"/>
<path d="M218.227 108.828C216.949 108.964 216.425 110.947 216.629 112.832C216.834 114.717 217.678 116.429 218.93 116.429H219.058C220.336 116.294 220.86 114.31 220.656 112.426C220.451 110.541 219.505 108.668 218.227 108.828Z" fill="#0F265C"/>
<path d="M244.761 109.962C244.713 108.746 244.214 107.588 243.355 106.697C243.219 106.575 243.057 106.484 242.88 106.428C242.704 106.373 242.517 106.356 242.333 106.377C242.149 106.399 241.972 106.455 241.812 106.544C241.651 106.633 241.511 106.752 241.4 106.894C240.752 107.938 240.517 109.171 240.735 110.368C240.783 111.587 241.282 112.75 242.141 113.645C242.39 113.853 242.706 113.97 243.036 113.978H243.163C243.534 113.978 244.211 113.707 244.582 112.512C244.811 111.681 244.871 110.815 244.761 109.962Z" fill="#0F265C"/>
<path d="M354.552 211.916C348.749 203.046 338.46 199.227 332.172 199.079C331.746 199.055 331.32 199.055 330.894 199.079C316.208 200.053 301.714 228.646 301.152 229.791L277.136 263.706C276.878 264.148 276.757 264.652 276.786 265.159C276.816 265.665 276.995 266.153 277.302 266.564C278.079 267.751 279.06 268.801 280.203 269.669L275.883 275.274C273.406 273.643 270.779 272.232 268.036 271.061C254.526 265.406 229.372 254.873 217.384 248.061L213.945 246.102C202.685 239.622 185.661 229.853 171.831 227.02C162.348 225.061 152.595 227.623 146.077 230.124C142.992 231.312 140.09 232.899 137.45 234.842C131.733 238.661 125.615 241.89 119.198 244.476L115.364 246.053C114.309 246.492 113.477 247.316 113.05 248.344C112.832 248.848 112.72 249.388 112.72 249.933C112.72 250.479 112.832 251.019 113.05 251.523C113.416 252.328 114.038 253 114.826 253.443C115.614 253.886 116.527 254.076 117.434 253.986L118.278 253.9C120.834 253.662 123.338 253.051 125.704 252.089L141.246 245.745C140.095 248.726 139.469 252.102 140.901 254.615C141.594 255.968 142.661 257.111 143.985 257.917C145.309 258.723 146.837 259.162 148.403 259.185C148.765 259.207 149.128 259.207 149.49 259.185C150.09 260.546 151.112 261.695 152.417 262.474C153.69 263.286 155.172 263.743 156.698 263.793C161.811 263.916 165.39 258.865 165.428 258.865C165.498 258.772 165.534 258.659 165.53 258.544C169.336 259.925 173.352 260.695 177.417 260.824C182.027 260.933 186.606 260.058 190.824 258.261C192.511 259.395 233.373 287.199 264.01 310.409C264.265 310.594 269.838 314.388 273.902 315.423L274.286 315.509H274.503C274.733 315.509 274.963 315.583 275.168 315.595H275.308C276.299 315.73 277.298 315.804 278.299 315.817C281.054 315.927 283.795 315.396 286.292 314.268C288.788 313.14 290.966 311.448 292.64 309.337L310.904 285.844C320.682 289.872 329.437 292.817 332.236 292.878H332.262C332.531 292.911 332.804 292.876 333.055 292.776C333.305 292.677 333.525 292.517 333.693 292.312C335.393 289.367 335.457 289.256 346.807 260.282C347.758 257.863 348.894 255.516 350.206 253.26C362.451 232.329 359.332 219.197 354.552 211.916Z" fill="#0F265C"/>
<path d="M291.54 308.598C287.463 313.833 280.344 315.386 274.324 314.203C270.49 313.267 264.866 309.411 264.828 309.386C235.865 287.446 197.726 261.341 192.23 257.645C192.844 257.35 193.508 257.042 194.083 256.697C194.228 256.614 194.334 256.481 194.379 256.325C194.425 256.169 194.406 256.002 194.326 255.859C194.238 255.719 194.098 255.616 193.934 255.572C193.77 255.529 193.594 255.548 193.444 255.625C175.551 265.566 158.258 253.629 158.091 253.518C158.024 253.47 157.948 253.434 157.867 253.414C157.785 253.394 157.701 253.39 157.618 253.401C157.534 253.413 157.455 253.44 157.382 253.481C157.31 253.522 157.247 253.577 157.197 253.641C157.147 253.707 157.111 253.781 157.091 253.86C157.072 253.939 157.068 254.021 157.081 254.101C157.094 254.181 157.124 254.258 157.167 254.327C157.211 254.396 157.269 254.456 157.337 254.504C159.567 255.96 161.96 257.17 164.469 258.113C164.265 258.409 159.433 265.209 153.196 261.427C146.959 257.645 152.289 246.928 152.353 246.817C152.39 246.744 152.411 246.665 152.417 246.584C152.422 246.503 152.411 246.422 152.383 246.345C152.356 246.268 152.313 246.198 152.258 246.137C152.202 246.076 152.134 246.027 152.059 245.991C151.983 245.955 151.901 245.934 151.817 245.929C151.733 245.924 151.649 245.935 151.569 245.961C151.49 245.988 151.416 246.029 151.353 246.083C151.29 246.137 151.239 246.202 151.202 246.275C151.023 246.632 147.841 252.952 149.17 257.99C147.722 258.098 146.273 257.781 145.016 257.079C143.758 256.378 142.751 255.325 142.128 254.06C139.341 249.133 145.962 239.807 146.026 239.708C146.074 239.641 146.108 239.566 146.126 239.486C146.144 239.406 146.145 239.324 146.13 239.244C146.114 239.163 146.083 239.087 146.036 239.019C145.99 238.95 145.93 238.892 145.86 238.846C145.719 238.759 145.55 238.727 145.386 238.756C145.221 238.786 145.076 238.876 144.978 239.006C143.844 240.643 142.856 242.37 142.025 244.168L125.307 250.968C123.065 251.888 120.69 252.474 118.265 252.705L117.434 252.779C116.791 252.842 116.144 252.705 115.587 252.388C115.031 252.071 114.594 251.591 114.341 251.017C114.186 250.663 114.106 250.282 114.106 249.896C114.106 249.511 114.186 249.13 114.341 248.775C114.646 248.055 115.234 247.479 115.977 247.174L119.812 245.585C126.327 242.975 132.532 239.695 138.319 235.803C140.866 233.932 143.665 232.403 146.639 231.257C153.03 228.794 162.514 226.33 171.678 228.202C185.29 231.011 202.199 240.719 213.396 247.137C214.674 247.839 215.76 248.504 216.847 249.108C227.442 255.132 247.522 263.756 267.652 272.194C270.297 273.32 272.83 274.677 275.219 276.247L276.28 276.962C281.448 280.347 285.759 284.81 288.895 290.02C288.946 290.116 289.023 290.196 289.117 290.252C289.212 290.309 289.32 290.339 289.432 290.341C289.543 290.347 289.655 290.321 289.751 290.267C289.898 290.186 290.007 290.054 290.055 289.898C290.102 289.741 290.085 289.573 290.007 289.429C286.776 284.066 282.344 279.466 277.034 275.964L281.303 270.433C287.438 275.077 299.056 280.793 309.754 285.29L291.54 308.598Z" fill="white"/>
<path d="M349.094 252.582C347.75 254.899 346.583 257.307 345.605 259.789C334.396 288.456 334.23 288.838 332.619 291.622C331.086 292.164 321.985 289.158 311.62 284.834L310.418 284.329C299.695 279.808 287.923 274.03 281.942 269.546L280.958 268.77C280.405 268.323 279.884 267.842 279.398 267.328C278.58 266.441 277.698 265.234 278.197 264.458L302.238 230.469C302.379 230.173 317.013 201.297 330.971 200.385C336.735 200.003 347.586 203.551 353.466 212.631C358.067 219.603 361.032 232.255 349.094 252.582Z" fill="white"/>
<path d="M140.751 122.221C120.222 127.228 107.812 147.323 113.033 167.104C118.254 186.885 139.129 198.862 159.659 193.855C180.189 188.848 192.599 168.753 187.377 148.972C182.156 129.191 161.281 117.214 140.751 122.221Z" fill="white" stroke="#CFD4DE" stroke-width="1.5" stroke-linecap="round" stroke-linejoin="round"/>
<path d="M112.658 196.413C111.358 199.575 112.966 203.15 116.249 204.397C119.533 205.645 123.249 204.092 124.549 200.929C125.849 197.767 124.241 194.192 120.958 192.944C117.674 191.697 113.958 193.25 112.658 196.413Z" fill="white" stroke="#CFD4DE" stroke-width="1.5" stroke-linecap="round" stroke-linejoin="round"/>
<path d="M104.516 207.056C103.866 208.637 104.67 210.424 106.312 211.048C107.954 211.672 109.812 210.895 110.462 209.314C111.112 207.733 110.308 205.945 108.666 205.322C107.024 204.698 105.166 205.474 104.516 207.056Z" fill="white" stroke="#CFD4DE" stroke-width="1.5" stroke-linecap="round" stroke-linejoin="round"/>
<path d="M150.819 137.155C139.06 137.155 129.517 146.353 129.517 157.687C129.517 169.02 139.06 178.219 150.819 178.219C162.577 178.219 172.121 169.02 172.121 157.687C172.121 146.353 162.577 137.155 150.819 137.155ZM150.819 174.112C141.425 174.112 133.777 166.741 133.777 157.687C133.777 148.632 141.425 141.261 150.819 141.261C160.213 141.261 167.86 148.632 167.86 157.687C167.86 166.741 160.213 174.112 150.819 174.112ZM160.596 148.612L146.558 162.142L141.041 156.845L138.037 159.74L146.558 167.953L163.6 151.527L160.596 148.612Z" fill="#0F265C"/>
</svg>
