<svg width="400" height="400" viewBox="0 0 400 400" fill="none" xmlns="http://www.w3.org/2000/svg">
<path d="M207.955 350.62C237.622 350.62 266.623 341.822 291.29 325.34C315.957 308.858 335.183 285.431 346.536 258.022C357.89 230.613 360.86 200.453 355.072 171.356C349.285 142.259 334.998 115.532 314.021 94.5538C293.043 73.5759 266.315 59.2898 237.218 53.502C208.121 47.7142 177.961 50.6847 150.552 62.0379C123.143 73.391 99.7163 92.6169 83.2341 117.284C66.7519 141.952 57.9546 170.953 57.9546 200.62C57.9546 240.402 73.7581 278.555 101.889 306.686C130.019 334.816 168.172 350.62 207.955 350.62Z" fill="#F4F6F9"/>
<path d="M206.793 350C177.234 350 148.338 341.203 123.76 324.72C99.1819 308.238 80.0256 284.811 68.7136 257.402C57.4016 229.994 54.4419 199.834 60.2087 170.736C65.9755 141.639 80.2098 114.912 101.112 93.9339C122.014 72.9561 148.644 58.6699 177.636 52.8822C206.628 47.0944 236.678 50.0649 263.988 61.418C291.298 72.7712 314.64 91.997 331.062 116.664C347.485 141.332 356.25 170.333 356.25 200C356.204 239.768 340.443 277.895 312.425 306.015C284.406 334.136 246.418 349.954 206.793 350ZM206.793 51.2396C177.478 51.2396 148.821 59.9643 124.446 76.3103C100.071 92.6563 81.0733 115.889 69.8548 143.072C58.6363 170.254 55.701 200.165 61.4202 229.022C67.1393 257.878 81.256 284.385 101.985 305.189C122.714 325.994 149.125 340.162 177.877 345.902C206.629 351.642 236.431 348.696 263.515 337.437C290.599 326.177 313.748 307.11 330.035 282.647C346.322 258.183 355.015 229.422 355.015 200C354.972 160.559 339.343 122.746 311.555 94.8577C283.767 66.9689 246.091 51.2823 206.793 51.2396Z" fill="#CFD4DE"/>
<path d="M124.592 195.661H52.952C51.9495 195.629 50.9996 195.203 50.3066 194.475C49.6137 193.747 49.233 192.775 49.2465 191.769V148.715C49.2331 147.709 49.6142 146.739 50.3075 146.013C51.0007 145.287 51.9506 144.864 52.952 144.835H124.592C125.594 144.864 126.544 145.287 127.237 146.013C127.93 146.739 128.311 147.709 128.298 148.715V191.769C128.311 192.775 127.931 193.747 127.238 194.475C126.545 195.203 125.595 195.629 124.592 195.661Z" fill="#CFD4DE"/>
<g opacity="0.7">
<path opacity="0.7" d="M121.159 199.38H48.172C47.1596 199.37 46.192 198.96 45.4796 198.238C44.7672 197.516 44.3675 196.541 44.3676 195.525V153.017C44.3676 152.002 44.7676 151.028 45.4803 150.308C46.1931 149.588 47.1607 149.18 48.172 149.174H121.159C122.17 149.18 123.137 149.588 123.85 150.308C124.563 151.028 124.963 152.002 124.963 153.017V195.525C124.963 196.541 124.563 197.516 123.851 198.238C123.139 198.96 122.171 199.37 121.159 199.38Z" fill="#F4F6F9"/>
<path opacity="0.7" d="M121.159 200H48.172C46.9948 199.993 45.8682 199.519 45.0393 198.68C44.2104 197.841 43.7467 196.706 43.75 195.525V153.017C43.7484 152.432 43.8615 151.853 44.0829 151.312C44.3042 150.772 44.6295 150.28 45.0401 149.866C45.4507 149.452 45.9386 149.122 46.4759 148.897C47.0133 148.672 47.5897 148.555 48.172 148.554H121.159C121.741 148.555 122.317 148.672 122.855 148.897C123.392 149.122 123.88 149.452 124.291 149.866C124.701 150.28 125.026 150.772 125.248 151.312C125.469 151.853 125.582 152.432 125.581 153.017V195.525C125.584 196.706 125.12 197.841 124.291 198.68C123.462 199.519 122.336 199.993 121.159 200ZM48.172 149.793C47.7519 149.795 47.3361 149.88 46.9486 150.043C46.5611 150.205 46.2094 150.443 45.9135 150.743C45.6175 151.042 45.3833 151.397 45.224 151.787C45.0648 152.177 44.9836 152.595 44.9852 153.017V195.525C44.9819 196.377 45.3154 197.197 45.9127 197.803C46.51 198.41 47.3224 198.754 48.172 198.76H121.159C122.008 198.754 122.821 198.41 123.418 197.803C124.015 197.197 124.349 196.377 124.345 195.525V153.017C124.347 152.595 124.266 152.177 124.107 151.787C123.947 151.397 123.713 151.042 123.417 150.743C123.121 150.443 122.769 150.205 122.382 150.043C121.994 149.88 121.579 149.795 121.159 149.793H48.172Z" fill="#CFD4DE"/>
</g>
<path d="M59.7702 171.19C59.9107 171.614 60.0799 172.029 60.2766 172.43C60.4036 172.694 60.4445 172.992 60.3935 173.281C60.3425 173.571 60.2023 173.836 59.9926 174.041L58.8562 175.107C58.6028 175.365 58.4606 175.712 58.4606 176.074C58.4606 176.436 58.6028 176.784 58.8562 177.041L60.499 178.802C60.62 178.933 60.7659 179.039 60.928 179.113C61.0901 179.187 61.2653 179.228 61.4434 179.234C61.6214 179.24 61.7989 179.21 61.9654 179.146C62.132 179.083 62.2842 178.987 62.4135 178.864L63.9328 177.426C64.1225 177.246 64.3587 177.124 64.6144 177.074C64.87 177.024 65.1347 177.047 65.3779 177.14L65.7361 177.289C65.9907 177.383 66.2115 177.551 66.37 177.772C66.5285 177.993 66.6175 178.257 66.6255 178.529L66.7489 180.76C66.7804 181.116 66.9494 181.444 67.2195 181.676C67.4897 181.908 67.8396 182.024 68.1942 182L70.578 181.864C70.9331 181.829 71.2606 181.657 71.4912 181.384C71.7219 181.111 71.8374 180.758 71.8132 180.401L71.702 178.492C71.6833 178.207 71.7543 177.923 71.905 177.68C72.0558 177.438 72.2785 177.249 72.5419 177.14C72.7978 177.04 73.0779 177.018 73.3463 177.077C73.6147 177.137 73.8593 177.275 74.0489 177.475L75.2841 178.789C75.5308 179.054 75.8715 179.21 76.2322 179.224C76.593 179.238 76.9447 179.108 77.2109 178.864L78.9525 177.215C79.084 177.091 79.1899 176.943 79.2642 176.778C79.3384 176.613 79.3797 176.435 79.3854 176.255C79.3911 176.074 79.3613 175.894 79.2976 175.725C79.234 175.555 79.1376 175.4 79.0143 175.269L77.7791 173.955C77.5911 173.754 77.4681 173.501 77.4263 173.229C77.3844 172.956 77.4255 172.678 77.5444 172.43C77.6549 172.169 77.8444 171.949 78.0861 171.803C78.3277 171.656 78.6092 171.589 78.8908 171.612L80.7806 171.847C80.9621 171.869 81.1462 171.855 81.3218 171.804C81.4975 171.753 81.6611 171.667 81.803 171.552C81.9448 171.436 82.062 171.293 82.1474 171.13C82.2327 170.968 82.2846 170.79 82.2999 170.607L82.5963 168.227C82.642 167.868 82.5443 167.504 82.3246 167.216C82.1049 166.929 81.7808 166.739 81.4229 166.69L79.2243 166.417C78.9595 166.385 78.7102 166.275 78.5079 166.101C78.3056 165.927 78.1594 165.696 78.0879 165.438C78.0879 165.314 78.0138 165.19 77.9644 165.066C77.8881 164.817 77.8823 164.552 77.9478 164.3C78.0133 164.049 78.1473 163.82 78.3349 163.641L79.8542 162.215C80.1085 161.955 80.2509 161.606 80.2509 161.242C80.2509 160.878 80.1085 160.528 79.8542 160.269L78.2238 158.521C78.1017 158.389 77.9547 158.283 77.7916 158.209C77.6285 158.134 77.4523 158.093 77.2732 158.087C77.0941 158.081 76.9156 158.111 76.7481 158.175C76.5805 158.239 76.4272 158.335 76.2969 158.459L75.1605 159.525C74.9456 159.725 74.6719 159.85 74.3802 159.882C74.0886 159.913 73.7947 159.849 73.5424 159.698C73.1461 159.473 72.7332 159.278 72.3072 159.116C72.0573 159.018 71.8418 158.848 71.6879 158.627C71.5341 158.407 71.4487 158.145 71.4426 157.876L71.3191 155.893C71.2876 155.537 71.1187 155.209 70.8485 154.977C70.5784 154.745 70.2286 154.629 69.874 154.653L67.4901 154.802C67.1349 154.83 66.8054 154.999 66.5738 155.271C66.3423 155.543 66.2276 155.895 66.2549 156.252L66.3414 157.653C66.3572 157.946 66.2795 158.236 66.1195 158.481C65.9596 158.726 65.7257 158.914 65.452 159.017L65.1309 159.14C64.8771 159.242 64.5987 159.264 64.3321 159.205C64.0655 159.145 63.8231 159.006 63.6364 158.806L62.8335 157.975C62.7113 157.844 62.5645 157.738 62.4013 157.663C62.2382 157.589 62.062 157.548 61.8829 157.542C61.7038 157.536 61.5253 157.566 61.3578 157.63C61.1902 157.693 61.0369 157.79 60.9066 157.913L59.165 159.562C58.9024 159.813 58.7487 160.158 58.7372 160.522C58.7256 160.887 58.857 161.241 59.1032 161.508L59.9678 162.426C60.1554 162.629 60.2779 162.884 60.3198 163.158C60.3616 163.432 60.3207 163.712 60.2025 163.963L60.0543 164.273C59.9366 164.54 59.7358 164.762 59.482 164.905C59.2281 165.048 58.9348 165.104 58.6462 165.066L57.2628 164.893C57.0819 164.874 56.8991 164.891 56.7248 164.943C56.5505 164.995 56.3882 165.081 56.2471 165.196C56.106 165.311 55.9889 165.453 55.9025 165.614C55.8161 165.775 55.7621 165.951 55.7435 166.132L55.4471 168.525C55.4249 168.707 55.4394 168.892 55.49 169.068C55.5406 169.244 55.6261 169.409 55.7414 169.551C55.8568 169.693 55.9995 169.811 56.1612 169.897C56.3229 169.982 56.5001 170.034 56.6823 170.05L58.6338 170.298C58.8876 170.324 59.1288 170.422 59.3298 170.58C59.5308 170.738 59.6835 170.949 59.7702 171.19ZM65.3903 164.992C67.416 163.07 71.0597 162.512 72.9496 164.496C74.8394 166.479 75.2223 170.149 73.209 172.045C71.1956 173.942 66.8848 174.054 64.995 172.045C64.553 171.558 64.2122 170.987 63.9925 170.367C63.7728 169.746 63.6786 169.087 63.7154 168.429C63.7522 167.771 63.9192 167.127 64.2068 166.535C64.4944 165.943 64.8967 165.414 65.3903 164.979V164.992Z" fill="#0F265C"/>
<path d="M109.437 196.281C109.062 196.281 108.7 196.139 108.424 195.884C108.272 195.749 108.148 195.586 108.059 195.403C107.97 195.22 107.918 195.021 107.905 194.818L107.806 193.293C107.809 193.232 107.79 193.172 107.755 193.123C107.719 193.073 107.667 193.037 107.609 193.021L107.349 192.921C107.296 192.897 107.237 192.89 107.179 192.901C107.122 192.913 107.069 192.941 107.028 192.983L105.991 193.963C105.689 194.243 105.29 194.394 104.879 194.384C104.674 194.38 104.472 194.333 104.285 194.248C104.098 194.163 103.93 194.04 103.792 193.888L102.68 192.649C102.541 192.5 102.433 192.325 102.363 192.133C102.293 191.941 102.262 191.737 102.273 191.533C102.283 191.12 102.456 190.727 102.754 190.442L103.52 189.723C103.565 189.671 103.589 189.605 103.589 189.537C103.589 189.469 103.565 189.403 103.52 189.351C103.379 189.045 103.255 188.73 103.15 188.409C103.134 188.351 103.101 188.299 103.054 188.261C103.008 188.224 102.95 188.201 102.89 188.198L101.544 188.025C101.343 187.999 101.149 187.933 100.973 187.832C100.797 187.731 100.643 187.596 100.519 187.434C100.395 187.273 100.304 187.089 100.251 186.893C100.198 186.696 100.184 186.491 100.21 186.289L100.42 184.665C100.469 184.255 100.677 183.88 101.001 183.624C101.329 183.375 101.741 183.263 102.149 183.314L103.088 183.438C103.154 183.444 103.22 183.43 103.278 183.396C103.336 183.363 103.381 183.313 103.409 183.252L103.471 183.103C103.518 183.041 103.543 182.965 103.543 182.886C103.543 182.808 103.518 182.732 103.471 182.669L102.878 182.037C102.737 181.889 102.628 181.715 102.555 181.523C102.483 181.332 102.449 181.129 102.456 180.924C102.463 180.72 102.51 180.519 102.595 180.334C102.681 180.148 102.802 179.981 102.952 179.843L104.187 178.727C104.333 178.583 104.507 178.471 104.699 178.399C104.89 178.326 105.095 178.294 105.299 178.306C105.706 178.319 106.092 178.493 106.374 178.789L106.966 179.421C107.007 179.468 107.061 179.5 107.12 179.516C107.179 179.531 107.242 179.529 107.3 179.508L107.461 179.434C107.658 179.359 107.745 179.236 107.732 179.099V178.145C107.719 177.941 107.746 177.737 107.811 177.544C107.877 177.35 107.979 177.172 108.114 177.019C108.248 176.866 108.411 176.741 108.594 176.651C108.776 176.561 108.975 176.508 109.177 176.496L110.808 176.397C111.216 176.373 111.616 176.512 111.921 176.784C112.227 177.056 112.413 177.438 112.438 177.847L112.525 179.198C112.528 179.258 112.548 179.316 112.583 179.364C112.618 179.412 112.667 179.45 112.722 179.471C113.034 179.597 113.335 179.746 113.624 179.917C113.679 179.954 113.743 179.974 113.809 179.974C113.875 179.974 113.94 179.954 113.995 179.917L114.773 179.186C114.915 179.041 115.087 178.928 115.277 178.856C115.467 178.783 115.669 178.752 115.872 178.764C116.077 178.769 116.279 178.816 116.466 178.901C116.653 178.986 116.821 179.108 116.959 179.26L118.071 180.5C118.211 180.648 118.321 180.823 118.393 181.014C118.466 181.205 118.5 181.408 118.493 181.613C118.486 181.817 118.438 182.018 118.353 182.204C118.268 182.389 118.147 182.556 117.997 182.694L116.959 183.674C116.917 183.714 116.886 183.766 116.871 183.823C116.856 183.879 116.856 183.939 116.873 183.996C116.907 184.085 116.936 184.176 116.959 184.269C116.976 184.327 117.009 184.38 117.055 184.419C117.101 184.459 117.158 184.484 117.218 184.492L118.725 184.69C118.927 184.715 119.122 184.781 119.298 184.883C119.474 184.985 119.628 185.122 119.751 185.285C119.998 185.61 120.109 186.02 120.059 186.426L119.849 188.05C119.826 188.252 119.764 188.448 119.665 188.626C119.566 188.804 119.432 188.96 119.273 189.086C119.113 189.211 118.93 189.304 118.734 189.358C118.538 189.412 118.334 189.427 118.132 189.401L116.835 189.24C116.778 189.232 116.72 189.241 116.668 189.265C116.615 189.289 116.571 189.328 116.539 189.376C116.516 189.434 116.51 189.497 116.521 189.558C116.532 189.62 116.559 189.677 116.601 189.723L117.428 190.628C117.569 190.774 117.679 190.947 117.751 191.136C117.823 191.326 117.856 191.529 117.848 191.731C117.844 191.937 117.797 192.14 117.713 192.328C117.628 192.515 117.506 192.683 117.354 192.822L116.119 193.938C115.974 194.079 115.801 194.189 115.613 194.262C115.424 194.334 115.222 194.368 115.02 194.359C114.815 194.355 114.613 194.308 114.426 194.223C114.239 194.138 114.071 194.016 113.933 193.864L113.105 192.971C113.063 192.923 113.007 192.89 112.945 192.876C112.882 192.863 112.817 192.87 112.759 192.897C112.706 192.924 112.662 192.967 112.633 193.02C112.604 193.073 112.592 193.134 112.599 193.194L112.673 194.496C112.698 194.912 112.561 195.321 112.29 195.636C112.013 195.942 111.627 196.124 111.215 196.145L109.597 196.244L109.437 196.281ZM107.3 191.657C107.495 191.656 107.688 191.694 107.868 191.769L108.115 191.855C108.393 191.964 108.633 192.15 108.808 192.392C108.983 192.634 109.086 192.921 109.103 193.219L109.19 194.744C109.199 194.826 109.238 194.901 109.301 194.955C109.362 195.008 109.442 195.034 109.523 195.029L111.154 194.93C111.194 194.929 111.233 194.92 111.269 194.903C111.305 194.886 111.338 194.861 111.364 194.831C111.417 194.769 111.443 194.689 111.438 194.607L111.364 193.293C111.345 192.968 111.427 192.645 111.6 192.37C111.773 192.094 112.027 191.88 112.327 191.756H112.463C112.739 191.665 113.035 191.656 113.316 191.731C113.597 191.805 113.85 191.961 114.044 192.178L114.872 193.07C114.901 193.103 114.937 193.129 114.978 193.146C115.018 193.164 115.062 193.171 115.106 193.169C115.145 193.17 115.184 193.162 115.22 193.147C115.256 193.132 115.289 193.11 115.316 193.083L116.551 191.967C116.582 191.938 116.607 191.904 116.624 191.866C116.641 191.827 116.65 191.786 116.65 191.744C116.651 191.661 116.62 191.581 116.564 191.521L115.736 190.616C115.541 190.407 115.407 190.149 115.348 189.869C115.289 189.589 115.308 189.299 115.403 189.029L115.477 188.868C115.615 188.574 115.843 188.332 116.127 188.176C116.411 188.02 116.737 187.958 117.058 188L118.293 188.174C118.372 188.179 118.451 188.157 118.515 188.112C118.55 188.088 118.579 188.057 118.601 188.02C118.622 187.984 118.635 187.943 118.639 187.901L118.849 186.277C118.877 186.201 118.877 186.117 118.849 186.041C118.825 186.006 118.794 185.977 118.758 185.956C118.721 185.934 118.681 185.921 118.639 185.917L117.132 185.731C116.842 185.682 116.572 185.55 116.354 185.353C116.135 185.155 115.977 184.9 115.897 184.616C115.897 184.616 115.897 184.479 115.835 184.405C115.738 184.122 115.725 183.817 115.798 183.526C115.87 183.236 116.024 182.973 116.243 182.769L117.28 181.789C117.31 181.761 117.333 181.728 117.349 181.69C117.365 181.653 117.374 181.613 117.374 181.572C117.374 181.532 117.365 181.491 117.349 181.454C117.333 181.417 117.31 181.383 117.28 181.355L116.169 180.116C116.14 180.085 116.106 180.06 116.067 180.043C116.029 180.026 115.988 180.017 115.946 180.017C115.905 180.014 115.864 180.02 115.825 180.035C115.787 180.05 115.752 180.074 115.724 180.103L114.958 180.822C114.715 181.052 114.405 181.197 114.073 181.235C113.741 181.273 113.406 181.202 113.118 181.033C112.881 180.893 112.633 180.773 112.377 180.674C112.104 180.563 111.868 180.377 111.696 180.138C111.523 179.899 111.421 179.617 111.401 179.322L111.327 177.971C111.293 177.917 111.245 177.874 111.189 177.845C111.132 177.817 111.069 177.805 111.005 177.81C110.943 177.759 110.864 177.732 110.783 177.736L109.153 177.835C109.112 177.834 109.073 177.842 109.036 177.859C109 177.877 108.968 177.902 108.943 177.934C108.913 177.965 108.89 178.002 108.878 178.043C108.865 178.084 108.862 178.127 108.869 178.169V179.124C108.888 179.455 108.801 179.784 108.621 180.063C108.441 180.342 108.177 180.555 107.868 180.674L107.658 180.748C107.377 180.833 107.077 180.835 106.794 180.754C106.512 180.672 106.259 180.511 106.065 180.289L105.472 179.657C105.411 179.6 105.333 179.565 105.25 179.558C105.211 179.558 105.172 179.565 105.136 179.58C105.1 179.595 105.067 179.617 105.04 179.645L103.804 180.773C103.746 180.833 103.711 180.912 103.706 180.996C103.706 181.078 103.737 181.158 103.792 181.219L104.385 181.851C104.601 182.078 104.742 182.367 104.788 182.678C104.835 182.988 104.784 183.306 104.644 183.587L104.558 183.785C104.423 184.089 104.193 184.341 103.904 184.504C103.615 184.667 103.281 184.732 102.952 184.69L102.013 184.566C101.942 184.54 101.863 184.54 101.791 184.566C101.757 184.591 101.729 184.622 101.708 184.659C101.686 184.695 101.673 184.735 101.668 184.777L101.495 186.488C101.489 186.528 101.492 186.57 101.503 186.609C101.514 186.649 101.533 186.686 101.558 186.718C101.583 186.75 101.615 186.777 101.651 186.797C101.686 186.817 101.726 186.83 101.766 186.835L103.1 187.008C103.385 187.047 103.652 187.168 103.871 187.354C104.09 187.541 104.251 187.786 104.335 188.062C104.422 188.322 104.533 188.583 104.644 188.843C104.793 189.141 104.842 189.479 104.785 189.807C104.727 190.136 104.565 190.437 104.323 190.665L103.594 191.446C103.543 191.511 103.508 191.588 103.496 191.669C103.495 191.752 103.526 191.832 103.582 191.893L104.706 193.132C104.732 193.166 104.766 193.192 104.805 193.21C104.844 193.227 104.886 193.234 104.928 193.231C104.967 193.231 105.006 193.224 105.042 193.209C105.078 193.194 105.111 193.172 105.138 193.145L106.176 192.165C106.32 192.009 106.493 191.884 106.687 191.797C106.88 191.709 107.088 191.662 107.3 191.657ZM110.166 190.417H109.98C108.852 190.418 107.769 189.973 106.966 189.178C106.612 188.787 106.339 188.33 106.162 187.833C105.986 187.335 105.909 186.807 105.938 186.28C105.967 185.753 106.1 185.236 106.329 184.761C106.559 184.286 106.881 183.862 107.275 183.512C108.24 182.603 109.522 182.109 110.845 182.136C111.307 182.138 111.764 182.233 112.188 182.417C112.613 182.6 112.996 182.867 113.315 183.202C114.096 184.001 114.546 185.067 114.574 186.185C114.601 187.304 114.204 188.391 113.463 189.227C112.542 190.056 111.34 190.5 110.104 190.467L110.166 190.417ZM110.709 183.401C109.746 183.416 108.823 183.787 108.115 184.442C107.84 184.68 107.616 184.971 107.454 185.297C107.293 185.624 107.197 185.979 107.174 186.343C107.151 186.706 107.201 187.071 107.32 187.415C107.439 187.759 107.626 188.076 107.868 188.347C108.449 188.895 109.22 189.193 110.017 189.178C110.951 189.238 111.874 188.941 112.599 188.347C113.093 187.734 113.346 186.959 113.31 186.171C113.273 185.383 112.95 184.635 112.401 184.07C111.977 183.648 111.406 183.407 110.808 183.401H110.709Z" fill="#0F265C"/>
<path d="M59.1897 193.802C60.7246 193.802 61.9688 192.553 61.9688 191.012C61.9688 189.472 60.7246 188.223 59.1897 188.223C57.6548 188.223 56.4105 189.472 56.4105 191.012C56.4105 192.553 57.6548 193.802 59.1897 193.802Z" fill="#CFD4DE"/>
<path d="M68.4536 193.802C69.9885 193.802 71.2327 192.553 71.2327 191.012C71.2327 189.472 69.9885 188.223 68.4536 188.223C66.9187 188.223 65.6744 189.472 65.6744 191.012C65.6744 192.553 66.9187 193.802 68.4536 193.802Z" fill="#CFD4DE"/>
<path d="M77.7174 193.802C79.2522 193.802 80.4965 192.553 80.4965 191.012C80.4965 189.472 79.2522 188.223 77.7174 188.223C76.1825 188.223 74.9382 189.472 74.9382 191.012C74.9382 192.553 76.1825 193.802 77.7174 193.802Z" fill="#CFD4DE"/>
<path d="M91.3044 156.612H118.787C118.951 156.612 119.108 156.677 119.224 156.793C119.34 156.909 119.405 157.067 119.405 157.231C119.405 157.396 119.34 157.553 119.224 157.67C119.108 157.786 118.951 157.851 118.787 157.851H91.3044C91.1406 157.851 90.9836 157.786 90.8677 157.67C90.7519 157.553 90.6868 157.396 90.6868 157.231C90.6868 157.067 90.7519 156.909 90.8677 156.793C90.9836 156.677 91.1406 156.612 91.3044 156.612Z" fill="#CFD4DE"/>
<path d="M91.3044 166.529H118.787C118.951 166.529 119.108 166.594 119.224 166.71C119.34 166.827 119.405 166.984 119.405 167.149C119.405 167.313 119.34 167.471 119.224 167.587C119.108 167.703 118.951 167.769 118.787 167.769H91.3044C91.1406 167.769 90.9836 167.703 90.8677 167.587C90.7519 167.471 90.6868 167.313 90.6868 167.149C90.6868 166.984 90.7519 166.827 90.8677 166.71C90.9836 166.594 91.1406 166.529 91.3044 166.529Z" fill="#CFD4DE"/>
<path d="M91.3044 161.57H118.787C118.951 161.57 119.108 161.636 119.224 161.752C119.34 161.868 119.405 162.026 119.405 162.19C119.405 162.354 119.34 162.512 119.224 162.628C119.108 162.745 118.951 162.81 118.787 162.81H91.3044C91.1406 162.81 90.9836 162.745 90.8677 162.628C90.7519 162.512 90.6868 162.354 90.6868 162.19C90.6868 162.026 90.7519 161.868 90.8677 161.752C90.9836 161.636 91.1406 161.57 91.3044 161.57Z" fill="#CFD4DE"/>
<path d="M317.342 112.393C317.361 112.574 317.361 112.757 317.342 112.938C317.348 112.992 317.348 113.046 317.342 113.099C317.318 113.247 317.281 113.392 317.231 113.533C317.231 113.682 317.12 113.831 317.07 113.955C317.05 114.022 317.016 114.086 316.971 114.14C316.894 114.282 316.807 114.419 316.712 114.55C316.637 114.658 316.554 114.762 316.465 114.859C316.387 114.966 316.296 115.062 316.193 115.145C316.109 115.234 316.018 115.316 315.922 115.393C315.74 115.535 315.546 115.66 315.341 115.764C315.251 115.816 315.156 115.858 315.057 115.888C314.716 116.046 314.354 116.154 313.982 116.211C314.427 116.563 314.786 117.011 315.034 117.522C315.282 118.033 315.412 118.593 315.415 119.161C315.386 120.208 314.944 121.2 314.187 121.921C313.43 122.641 312.419 123.031 311.376 123.004C310.525 123.003 309.694 122.744 308.992 122.26C310.099 122.846 311.028 123.72 311.68 124.792C312.332 125.863 312.684 127.092 312.698 128.347C312.668 129.828 312.175 131.262 311.288 132.445C310.402 133.629 309.166 134.503 307.757 134.942C308.405 135.576 308.922 136.334 309.276 137.17C309.63 138.007 309.815 138.905 309.82 139.814C309.804 141.307 309.317 142.757 308.43 143.955C307.542 145.153 306.299 146.038 304.879 146.483C304.885 146.607 304.885 146.731 304.879 146.855C304.264 146.918 303.674 147.133 303.163 147.483C302.652 147.833 302.237 148.305 301.954 148.857C301.672 149.409 301.531 150.023 301.546 150.644C301.561 151.264 301.73 151.871 302.038 152.409C302.025 152.928 301.911 153.44 301.701 153.915C301.491 154.39 301.19 154.819 300.814 155.177C300.439 155.535 299.998 155.815 299.515 156.002C299.032 156.188 298.517 156.278 297.999 156.264C297.54 156.27 297.083 156.19 296.653 156.029C296.268 156.49 295.786 156.859 295.241 157.11C294.696 157.361 294.102 157.487 293.503 157.479C292.966 157.476 292.435 157.376 291.934 157.182C291.705 158.04 291.197 158.797 290.489 159.332C289.782 159.867 288.917 160.149 288.031 160.132C287.581 160.135 287.134 160.059 286.71 159.909C285.985 160.541 285.063 160.9 284.103 160.925C283.143 160.95 282.204 160.639 281.448 160.045C280.949 160.343 280.393 160.532 279.817 160.6C279.241 160.668 278.656 160.613 278.103 160.438C277.549 160.264 277.038 159.974 276.604 159.588C276.169 159.202 275.82 158.729 275.581 158.198C274.596 158.14 273.669 157.712 272.982 157.001C272.296 156.289 271.901 155.345 271.875 154.355C271.873 154.088 271.902 153.822 271.962 153.562C271.568 153.277 271.233 152.92 270.973 152.508L271.22 143.831L273.543 138.661C273.543 138.661 277.52 134.483 277.088 124.169C280.447 121.417 283.609 115.851 280.435 104.781C275.791 88.5165 255.027 89.9049 251.482 90.6859C246.498 91.8832 241.635 93.5432 236.957 95.6446C236.809 95.2484 236.738 94.8278 236.747 94.4049C236.75 93.5767 237.022 92.772 237.521 92.1123C238.02 91.4527 238.719 90.9738 239.513 90.7479C238.534 90.6834 237.616 90.2449 236.949 89.5226C236.281 88.8002 235.914 87.8487 235.924 86.8636C235.933 85.8784 236.318 84.9342 237 84.2249C237.681 83.5157 238.607 83.0951 239.587 83.0496C239.045 82.3853 238.748 81.5531 238.748 80.6942C238.774 79.7056 239.169 78.763 239.856 78.0535C240.542 77.344 241.469 76.9192 242.453 76.8636C241.841 76.1823 241.494 75.3018 241.477 74.3843C241.489 73.8644 241.602 73.3519 241.811 72.8763C242.021 72.4006 242.322 71.9713 242.697 71.6129C243.073 71.2546 243.515 70.9743 243.999 70.7883C244.483 70.6022 244.999 70.514 245.516 70.5289C246.13 70.5234 246.738 70.6546 247.295 70.9132C247.307 70.7544 247.332 70.5968 247.369 70.4421C247.403 70.2955 247.444 70.1507 247.493 70.0082C247.56 69.8158 247.642 69.6292 247.74 69.4504C247.839 69.2736 247.951 69.1038 248.073 68.9421C248.193 68.7721 248.335 68.618 248.493 68.4834C248.635 68.3562 248.784 68.2362 248.938 68.1239L249.197 67.9628C249.618 67.6993 250.089 67.5263 250.581 67.4545H250.914H251.322C251.89 67.4504 252.454 67.5643 252.977 67.7892C253.6 66.7692 254.463 65.9182 255.49 65.3109C256.518 64.7035 257.678 64.3584 258.869 64.3058C259.043 63.3859 259.535 62.5572 260.258 61.9655C260.981 61.3737 261.888 61.0566 262.821 61.0702C263.518 61.0741 264.204 61.244 264.822 61.5661C265.689 60.6813 266.761 60.0258 267.941 59.6581C269.122 59.2904 270.375 59.2219 271.589 59.4589C272.803 59.6959 273.939 60.2309 274.896 61.0161C275.854 61.8013 276.602 62.8122 277.075 63.9587C277.614 62.5773 278.558 61.3925 279.782 60.5604C281.006 59.7283 282.452 59.2879 283.93 59.2975C285.769 59.2604 287.552 59.9305 288.914 61.1706C290.276 62.4107 291.113 64.1268 291.255 65.9669C292.432 65.2782 293.771 64.9147 295.133 64.9132C297.033 64.8699 298.872 65.5842 300.247 66.8995C301.622 68.2147 302.422 70.0237 302.47 71.9297C302.475 72.3674 302.43 72.8042 302.335 73.2314C303.429 72.7663 304.619 72.5722 305.804 72.6655C306.989 72.7589 308.134 73.1369 309.143 73.7678C310.152 74.3986 310.995 75.2638 311.601 76.2902C312.206 77.3166 312.557 78.4742 312.624 79.6652C312.602 81.053 312.172 82.4033 311.388 83.5461C310.603 84.6889 309.499 85.5729 308.214 86.0868C309.5 86.5978 310.607 87.4812 311.392 88.6245C312.177 89.7679 312.606 91.1197 312.624 92.5082C312.624 93.6766 312.313 94.8237 311.722 95.8305C312.544 96.0457 313.272 96.5265 313.795 97.1987C314.317 97.8709 314.604 98.6971 314.612 99.5495C314.611 100.222 314.427 100.882 314.081 101.459C314.988 101.599 315.817 102.057 316.42 102.751C317.024 103.445 317.364 104.331 317.379 105.252C317.375 106.03 317.137 106.788 316.696 107.427C316.256 108.067 315.632 108.557 314.909 108.835C315.621 109.118 316.232 109.608 316.666 110.241C317.099 110.875 317.334 111.624 317.342 112.393Z" fill="#0F265C"/>
<path d="M234.585 213.116C234.227 214.355 233.782 215.669 233.276 217.083C232.423 219.401 231.373 221.967 230.175 224.719C228.236 229.169 225.889 234.091 223.32 239.211L223.172 239.496C221.937 241.975 220.566 244.641 219.207 247.256C218.799 248 218.416 248.781 217.972 249.525C216.646 252.054 215.312 254.566 213.97 257.062C213.599 257.731 213.241 258.401 212.883 259.07C211.648 261.24 210.536 263.372 209.375 265.467C204.434 274.405 199.889 282.5 196.764 288.103C194.293 292.541 190.909 294.822 187.414 295.442C184.629 295.911 181.768 295.431 179.286 294.079C176.787 292.74 174.712 290.726 173.295 288.264C171.36 284.949 170.717 281.032 171.492 277.269C171.793 275.779 172.27 274.331 172.913 272.955C174.914 268.641 177.483 262.231 180.497 254.843C180.978 253.665 181.46 252.463 181.954 251.223C186.722 239.57 192.404 226.046 198.493 214.554C200.716 210.339 203.001 206.409 205.311 202.926C206.671 200.855 208.144 198.86 209.721 196.95C209.721 196.95 209.721 196.876 209.795 196.851L210.326 196.231C211.636 194.679 213.079 193.244 214.637 191.942C215.964 190.837 217.43 189.911 218.997 189.19C220.603 188.428 222.375 188.087 224.148 188.198C224.605 188.228 225.059 188.295 225.506 188.397C225.982 188.522 226.448 188.679 226.902 188.868C227.331 189.044 227.744 189.255 228.137 189.5C228.573 189.777 228.986 190.088 229.373 190.43C231.768 192.645 233.482 195.501 234.313 198.661C234.313 198.748 234.375 198.835 234.4 198.922C234.424 199.008 234.4 199.083 234.474 199.169C234.597 199.665 234.733 200.174 234.832 200.682C235.777 204.783 235.693 209.056 234.585 213.116Z" fill="white"/>
<path d="M185.363 296.273C183.155 296.255 180.984 295.698 179.039 294.649H178.965C176.385 293.255 174.246 291.163 172.789 288.611C170.773 285.167 170.104 281.093 170.912 277.182C171.227 275.642 171.721 274.144 172.381 272.719C174.098 269 176.235 263.756 178.718 257.657L179.953 254.645C180.435 253.405 180.917 252.264 181.411 251.025C186.512 238.554 192.045 225.488 197.974 214.293C200.284 209.905 202.594 205.975 204.817 202.616C206.193 200.523 207.682 198.508 209.276 196.578L209.375 196.454L209.832 195.909C211.184 194.315 212.667 192.839 214.266 191.496C215.641 190.358 217.156 189.404 218.775 188.657C220.474 187.854 222.348 187.495 224.222 187.616C224.708 187.647 225.192 187.717 225.667 187.826C226.175 187.962 226.674 188.127 227.162 188.322C227.619 188.514 228.061 188.742 228.483 189.004C228.959 189.291 229.41 189.619 229.83 189.983C232.342 192.263 234.14 195.226 235.005 198.512L235.129 198.921C235.129 198.921 235.129 199.033 235.129 199.045L235.203 199.355C235.301 199.764 235.413 200.186 235.487 200.595C236.432 204.801 236.318 209.176 235.153 213.326C234.807 214.566 234.363 215.806 233.832 217.318C233.016 219.562 231.991 222.066 230.719 225.004C228.879 229.207 226.569 234.091 223.851 239.521L223.703 239.806C222.468 242.285 221.085 244.95 219.726 247.578C219.516 247.963 219.318 248.335 219.133 248.719L218.528 249.859C217.206 252.339 215.872 254.892 214.526 257.384L213.476 259.33V259.417L212.908 260.434C211.936 262.235 210.968 264.008 210.005 265.752V265.826C206.509 272.186 203.187 278.111 200.432 283.021L197.394 288.463C194.368 293.88 190.403 295.616 187.611 296.111C186.869 296.236 186.116 296.29 185.363 296.273ZM179.644 293.57C181.999 294.835 184.708 295.272 187.339 294.81C190.971 294.165 194.059 291.735 196.257 287.781L199.308 282.339C202.05 277.38 205.361 271.541 208.832 265.207V265.132C209.803 263.372 210.787 261.583 211.784 259.764L212.302 258.81V258.735C212.661 258.066 213.019 257.384 213.389 256.715C214.736 254.235 216.07 251.756 217.391 249.19L217.984 248.074C218.182 247.678 218.379 247.293 218.589 246.909C219.948 244.318 221.27 241.715 222.542 239.173L222.69 238.888C225.408 233.483 227.705 228.624 229.533 224.434C230.768 221.521 231.806 219.029 232.621 216.822C233.14 215.384 233.572 214.058 233.918 212.892C235.025 208.94 235.131 204.773 234.227 200.769C234.153 200.372 234.054 199.975 233.955 199.591L233.869 199.281C233.869 199.169 233.869 199.107 233.869 199.021C233.831 198.945 233.802 198.866 233.782 198.785C232.981 195.738 231.322 192.987 229.002 190.864C228.615 190.537 228.201 190.243 227.767 189.983C227.402 189.755 227.018 189.56 226.618 189.401C226.189 189.221 225.747 189.071 225.297 188.954C224.89 188.862 224.477 188.799 224.061 188.769C222.386 188.671 220.713 188.994 219.195 189.711C217.678 190.417 216.258 191.317 214.97 192.388C213.444 193.664 212.031 195.07 210.746 196.591L210.215 197.211C210.192 197.252 210.163 197.29 210.129 197.322C208.577 199.204 207.13 201.17 205.793 203.211C203.582 206.545 201.297 210.438 199 214.789C193.095 225.946 187.574 238.975 182.485 251.409C181.991 252.649 181.509 253.888 181.028 255.016L179.793 258.041C177.322 264.153 175.148 269.434 173.419 273.165C172.804 274.496 172.344 275.894 172.048 277.331C171.299 280.945 171.915 284.709 173.777 287.892C175.131 290.257 177.121 292.191 179.521 293.471L179.644 293.57Z" fill="#0F265C"/>
<path d="M309.313 216.314C309.168 221.192 308.371 226.029 306.942 230.694C306.942 230.694 306.942 230.694 306.942 230.769C306.546 232.107 306.089 233.421 305.595 234.736C305.101 235.975 304.558 237.289 303.977 238.554L303.915 238.702C302.999 240.664 301.981 242.576 300.865 244.43C295.837 252.974 288.637 260.025 280.002 264.859C275.13 267.517 269.813 269.252 264.316 269.979C263.29 270.116 262.253 270.227 261.191 270.264C259.955 270.351 258.72 270.364 257.399 270.339H256.868C244.652 269.905 235.005 265.789 227.977 259.182C224.355 255.766 221.383 251.716 219.207 247.231C216.82 242.311 215.239 237.037 214.526 231.612C214.037 228.089 213.843 224.531 213.945 220.975C213.945 219.438 214.056 217.901 214.192 216.401C214.433 213.166 214.9 209.951 215.588 206.781C216.935 199.99 219.869 193.617 224.148 188.186C224.592 187.616 225.086 187.058 225.58 186.512C226.075 185.967 226.383 185.657 226.816 185.273C227.248 184.888 227.483 184.628 227.816 184.331C227.878 184.256 227.952 184.219 228.001 184.157C231.965 180.68 236.586 178.041 241.588 176.397L241.897 176.298H242.07H242.132H242.206L242.737 176.124C243.33 175.934 243.935 175.76 244.553 175.603C245.121 175.442 245.689 175.293 246.282 175.157L246.492 167.719L246.751 158.186L247.245 139.864V137.682L247.517 128.149C247.555 126.826 247.867 125.526 248.431 124.331C248.615 123.939 248.821 123.558 249.049 123.19C249.441 122.548 249.901 121.949 250.42 121.405C251.837 119.916 253.547 118.738 255.442 117.946C257.336 117.154 259.374 116.766 261.425 116.806C268.318 116.992 275.012 119.868 274.802 126.388L274.493 137.781L274.234 147.041L273.456 175.988L273.629 176.062L273.752 176.124H273.901C274.703 176.422 275.494 176.756 276.284 177.079C277.075 177.401 277.581 177.599 278.211 177.872C279.274 178.306 280.324 178.777 281.373 179.26L282.386 179.744L282.633 179.868L283.955 180.525C283.998 180.533 284.037 180.554 284.066 180.587C292.786 184.988 300.333 190.566 304.842 198.326C305.886 200.132 306.747 202.038 307.411 204.017C308.778 207.967 309.422 212.133 309.313 216.314Z" fill="white"/>
<path d="M258.486 270.971H257.362H256.818C244.936 270.537 235.079 266.744 227.532 259.653C223.867 256.192 220.858 252.093 218.651 247.554C216.232 242.573 214.634 237.231 213.92 231.736C213.423 228.18 213.224 224.589 213.328 221C213.328 219.314 213.451 217.802 213.575 216.388C213.821 213.128 214.292 209.889 214.983 206.694C216.346 199.81 219.309 193.346 223.629 187.826C224.098 187.219 224.629 186.587 225.086 186.128C225.543 185.669 225.914 185.248 226.322 184.888C226.729 184.529 226.989 184.244 227.334 183.934L227.458 183.822C231.512 180.256 236.243 177.549 241.366 175.864L241.7 175.752H241.848L242.021 175.69C242.185 175.647 242.346 175.594 242.502 175.529C243.132 175.343 243.738 175.157 244.367 174.996H244.429L245.664 174.674L246.9 128.05C246.942 126.641 247.274 125.257 247.875 123.983C248.068 123.557 248.287 123.143 248.53 122.744C248.941 122.064 249.426 121.432 249.975 120.859C251.449 119.302 253.232 118.07 255.208 117.244C257.184 116.418 259.31 116.015 261.45 116.062C268.021 116.236 275.63 119.012 275.432 126.277L274.197 175.331H274.296C274.852 175.529 275.469 175.789 276.087 176.037L276.63 176.26C277.273 176.508 277.866 176.781 278.57 177.066H278.668C279.706 177.488 280.731 177.946 281.756 178.417L282.695 178.864L282.93 178.988L284.313 179.669L284.523 179.781C294.577 184.864 301.433 190.74 305.521 197.731C306.584 199.567 307.458 201.507 308.127 203.521C309.487 207.578 310.098 211.851 309.931 216.128C309.787 221.061 308.981 225.952 307.534 230.669C307.539 230.711 307.539 230.752 307.534 230.793C307.201 232.033 306.756 233.273 306.213 234.698C306.214 234.719 306.214 234.74 306.213 234.76C305.743 236 305.212 237.24 304.57 238.616C304.57 238.702 304.57 238.752 304.57 238.789C303.643 240.762 302.616 242.686 301.494 244.554C296.399 253.299 289.052 260.505 280.225 265.417C275.282 268.107 269.89 269.864 264.316 270.599C263.463 270.711 262.327 270.847 261.141 270.897C260.363 270.946 259.486 270.971 258.486 270.971ZM242.428 176.756L241.91 176.905C236.983 178.528 232.431 181.124 228.52 184.541C228.52 184.541 228.446 184.616 228.397 184.653C228.001 185.012 227.668 185.335 227.347 185.657C227.026 185.979 226.532 186.45 226.112 186.897C225.692 187.343 225.148 187.975 224.703 188.533C220.488 193.899 217.597 200.191 216.267 206.893C215.586 210.034 215.123 213.22 214.884 216.426C214.76 217.826 214.674 219.302 214.637 220.975C214.537 224.498 214.731 228.022 215.217 231.512C215.917 236.87 217.477 242.078 219.837 246.934C221.985 251.345 224.915 255.327 228.483 258.686C235.808 265.554 245.393 269.248 256.979 269.669H257.485C258.943 269.669 260.128 269.669 261.191 269.595C262.253 269.521 263.451 269.421 264.279 269.31C269.701 268.59 274.946 266.88 279.755 264.264C288.301 259.491 295.421 252.516 300.383 244.058C301.488 242.219 302.498 240.324 303.409 238.38C303.426 238.323 303.451 238.269 303.483 238.219C304.076 236.905 304.595 235.74 305.052 234.5C305.595 233.074 306.028 231.785 306.386 230.57C306.384 230.545 306.384 230.521 306.386 230.496C307.797 225.883 308.586 221.1 308.733 216.277C308.887 212.148 308.301 208.025 307.003 204.103C306.365 202.167 305.537 200.298 304.533 198.525C300.58 191.744 293.873 186.017 284.029 181.045H283.955C283.535 180.822 283.09 180.612 282.72 180.401L282.559 180.326L282.386 180.227L281.46 179.793C280.422 179.31 279.372 178.851 278.323 178.417C278.273 178.396 278.227 178.367 278.187 178.331L276.396 177.599L275.84 177.376L273.802 176.57L273.579 176.483L273.444 176.421C273.379 176.4 273.316 176.371 273.258 176.335C273.164 176.276 273.086 176.194 273.032 176.096C272.978 175.998 272.95 175.889 272.95 175.777L274.296 126.19C274.469 119.855 267.515 117.413 261.524 117.252C259.559 117.206 257.606 117.574 255.792 118.332C253.977 119.09 252.341 120.221 250.988 121.653C250.487 122.166 250.048 122.736 249.679 123.351C249.458 123.697 249.26 124.058 249.086 124.43C248.561 125.549 248.271 126.764 248.234 128L246.998 175.107C246.994 175.244 246.944 175.376 246.857 175.481C246.769 175.587 246.65 175.66 246.517 175.69C245.936 175.826 245.38 175.975 244.825 176.136H244.75C244.158 176.285 243.515 176.459 243.009 176.632C242.847 176.695 242.682 176.749 242.515 176.793L242.428 176.756Z" fill="#0F265C"/>
<path d="M270.232 140.707C265.292 132.202 256.905 128.31 247.752 127.479L246.937 166.529C260.227 165.029 276.581 152.322 270.232 140.707Z" fill="#0F265C"/>
<path d="M214.143 258.45C213.92 260.93 211.969 282.785 209.894 302.583H302.668C303.15 288.847 304.039 270.798 305.324 248.868C305.521 245.558 305.719 242.31 305.904 239.149L306.201 234.302C306.991 221.409 307.72 210.438 308.152 203.967L308.374 200.731C308.523 198.773 308.597 197.694 308.597 197.694C308.607 197.583 308.586 197.471 308.535 197.372C304.286 188.992 285.734 179.93 284.955 179.558C284.865 179.506 284.763 179.478 284.659 179.478C284.555 179.478 284.453 179.506 284.363 179.558L283.757 179.93L283.609 180.017L282.621 180.587L282.497 180.649L282.226 180.798C281.744 181.058 281.176 181.355 280.521 181.665L280.077 181.888L279.718 182.062L279.286 182.285L279.138 182.347C278.187 182.793 277.297 183.24 276.408 183.686C270.813 186.475 265.983 188.893 251.877 188.521H249.222C244.701 188.384 241.601 186.773 240.477 183.959C240.06 182.902 239.944 181.75 240.143 180.631C240.341 179.512 240.846 178.471 241.601 177.624L242.366 176.855L242.465 176.769L242.663 176.558C242.735 176.466 242.779 176.356 242.792 176.24C242.806 176.124 242.786 176.007 242.737 175.901C242.686 175.796 242.607 175.709 242.509 175.647C242.41 175.586 242.297 175.553 242.181 175.554H241.934L241.737 175.628C236.968 177.121 232.382 179.146 228.063 181.665C227.921 181.727 227.784 181.801 227.656 181.888L226.791 182.409C226.359 182.669 225.914 182.942 225.556 183.227C223.078 184.811 220.754 186.625 218.614 188.645C216.717 190.452 215.031 192.469 213.587 194.657C213.525 194.753 213.491 194.865 213.488 194.979L212.796 220.479C211.282 223.611 210.014 226.856 209.004 230.186C208.671 231.277 208.387 232.38 208.152 233.446C207.705 235.346 207.444 237.285 207.374 239.236C207.189 246.116 211.611 254.112 213.55 257.298C213.76 257.868 214.007 258.24 214.143 258.45Z" fill="#CFD4DE"/>
<path d="M212.92 259.07C212.648 260.979 209.573 284.223 207.806 303.463H230.04C230.04 292.764 229.224 277.43 228.496 266.917C228.298 263.868 228.1 261.24 227.94 259.194V259.021C227.94 258.612 227.94 258.215 227.853 257.868C224.864 255.091 223.345 247.219 223.172 239.508C223.172 237.488 223.172 235.467 223.32 233.57C223.629 229.504 225.939 225.748 228.496 222.562C230.163 220.479 231.929 218.62 233.276 217.095C234.249 216.156 235.011 215.019 235.511 213.76C236.061 209.364 236.358 204.939 236.401 200.508V199.194C237.883 197.719 237.735 191.273 237.117 190.578C234.214 189.599 231.608 190.839 230.62 189.574C230.332 189.171 230.184 188.683 230.2 188.186C230.336 187.901 230.484 187.628 230.645 187.355C232.699 184.096 235.332 181.242 238.414 178.938L238.513 178.864C239.575 178.045 240.501 177.376 241.144 176.917L241.934 176.483C242.206 176.322 242.478 176.198 242.737 176.05C243.843 175.489 245.007 175.052 246.208 174.748V174.463L246.492 167.583C238.377 169.182 231.349 173.781 228.78 179.769L227.804 180.364L226.569 181.095C220.947 184.614 215.749 188.774 211.08 193.492C210.565 194.32 210.275 195.268 210.24 196.244C210.18 196.679 210.147 197.118 210.141 197.558C209.881 203 211.104 212.186 211.598 218.124C211.722 219.364 211.784 220.603 211.808 221.459C210.419 223.98 209.305 226.644 208.486 229.405C208.214 230.298 207.955 231.215 207.72 232.132C206.932 234.916 206.517 237.792 206.485 240.686C206.793 245.149 207.88 249.438 212.92 259.07Z" fill="#0F265C"/>
<path d="M236.685 199.826H236.228H236.154C235.542 199.783 234.935 199.691 234.338 199.554C228.162 198.438 227.94 195.103 227.52 189.574V189.202C227.52 188.607 227.433 187.963 227.372 187.293C227.372 187.008 227.372 186.748 227.31 186.475V186.178C227.31 186.004 227.31 185.955 227.31 185.905C227.265 185.381 227.265 184.854 227.31 184.331C227.315 183.689 227.381 183.05 227.507 182.421C227.68 181.422 227.975 180.448 228.384 179.521C230.991 173.471 237.945 168.661 246.541 166.963L247.32 166.814L246.961 175.244L246.504 175.343C245.351 175.632 244.232 176.048 243.169 176.583L242.824 176.769L242.404 176.992L241.873 177.277L241.601 177.426C239.751 178.516 237.995 179.76 236.351 181.145L236.228 181.368H236.092C234.285 182.845 232.729 184.608 231.485 186.587C231.164 187.022 230.983 187.545 230.966 188.087C230.946 188.458 231.041 188.826 231.238 189.14L231.336 189.252C231.695 189.562 232.386 189.562 233.449 189.525C234.802 189.429 236.161 189.575 237.463 189.959H237.611L237.722 190.083C238.562 191.025 238.686 197.868 236.981 199.554L236.685 199.826ZM245.887 168.277C238.155 170 231.732 174.475 229.397 179.93C229.027 180.775 228.758 181.661 228.594 182.57C228.487 183.138 228.429 183.715 228.421 184.293C228.377 184.78 228.377 185.27 228.421 185.756V185.893C228.428 185.946 228.428 186 228.421 186.054V186.277L228.496 187.107C228.496 187.789 228.594 188.434 228.644 189.041V189.413C229.064 195.004 229.237 197.31 234.474 198.264C234.994 198.387 235.522 198.47 236.055 198.512C237.031 197.012 236.957 192.116 236.611 191.074C235.513 190.799 234.379 190.699 233.251 190.777C231.917 190.777 230.781 190.851 230.052 189.934L229.916 189.748C229.636 189.271 229.491 188.727 229.496 188.174C229.497 187.394 229.734 186.633 230.175 185.992C231.525 183.824 233.229 181.901 235.215 180.302L235.4 180.153C237.074 178.72 238.868 177.435 240.761 176.31L241.045 176.161L241.576 175.864L242.021 175.628L242.354 175.442C243.376 174.932 244.443 174.517 245.541 174.202L245.887 168.277Z" fill="#0F265C"/>
<path d="M246.245 167.955C246.245 167.955 228.335 170.942 227.841 185.88C227.952 187.058 227.656 188.806 230.632 189.599C230.571 184.95 230.632 184.169 239.155 178.442C241.438 177.062 243.802 175.82 246.233 174.723C246.233 174.723 246.233 168.649 246.245 167.955Z" fill="#0F265C"/>
<path d="M236.425 199.207V200.521C235.932 200.612 235.432 200.666 234.931 200.682C231.979 200.818 225.642 200.174 225.544 192.24C225.544 190.802 225.544 189.512 225.544 188.397C225.544 187.715 225.544 187.095 225.618 186.525C225.692 185.459 225.778 184.554 225.889 183.822C225.922 182.848 226.198 181.897 226.692 181.058L227.927 180.326C227.621 181.209 227.378 182.112 227.199 183.029C227.047 183.77 226.939 184.519 226.878 185.273C226.816 186.053 226.816 186.836 226.878 187.616C226.878 188.025 226.952 188.446 226.976 188.855C227.223 192.252 227.458 196.132 229.533 197.694C231.069 198.629 232.826 199.134 234.622 199.157C235.222 199.204 235.824 199.22 236.425 199.207Z" fill="#0F265C"/>
<path d="M260.462 257.236C260.504 257.478 260.533 257.722 260.548 257.967C260.833 260.149 261.005 262.69 261.104 265.504C261.104 267.004 261.191 268.591 261.203 270.215C261.302 280.343 260.697 292.405 260.116 301.43C260.116 301.578 260.116 301.727 260.116 301.876C260.116 302.397 260.042 302.905 260.017 303.413H303.446C303.953 286.058 304.78 261.388 305.015 255.773C305.015 255.686 305.015 255.599 305.015 255.512C305.021 255.43 305.021 255.347 305.015 255.264C305.015 255.14 305.015 255.029 305.015 254.942C305.008 254.851 305.008 254.76 305.015 254.669C305.009 254.632 305.009 254.595 305.015 254.558C305.472 251.459 317.12 225.004 313.253 201.736C311.919 193.74 298.209 182.211 283.325 176.942C283.016 176.831 282.695 176.707 282.362 176.607L281.892 176.446C279.805 169.393 274.839 167.298 274.21 167.025V168.202L274.024 174.624C274.024 174.624 274.111 174.711 274.16 174.723C274.069 174.825 273.991 174.938 273.925 175.058C273.815 175.252 273.72 175.455 273.641 175.665L273.814 175.74L273.938 175.802C275.403 176.495 276.777 177.37 278.026 178.405C278.64 178.94 279.098 179.631 279.353 180.406C279.607 181.18 279.648 182.01 279.471 182.806C279.471 182.93 279.471 183.091 279.471 183.24C279.456 183.349 279.431 183.457 279.397 183.562V183.674C278.088 186.785 266.267 188.868 262.821 190.033C262.216 190.752 261.191 197.595 262.661 199.07C262.545 199.315 262.462 199.573 262.414 199.839C262.401 199.917 262.401 199.996 262.414 200.074L262.265 200.979V201.364C261.87 205.343 262.673 212.397 262.71 213.76C262.71 215.471 260.326 219.822 259.375 223.529C258.424 227.236 255.027 242.682 259.375 252.178C259.966 253.806 260.332 255.508 260.462 257.236Z" fill="#0F265C"/>
<path d="M281.46 179.136C281.55 179.797 281.502 180.47 281.316 181.11C281.131 181.751 280.814 182.346 280.385 182.855C280.056 183.252 279.664 183.591 279.224 183.86V183.748C279.335 183.45 279.434 183.178 279.521 182.905C279.73 182.252 279.834 181.57 279.829 180.884C279.838 180.193 279.64 179.515 279.261 178.938C278.982 178.509 278.641 178.125 278.248 177.798C277.266 176.983 276.177 176.308 275.012 175.789C274.284 175.43 273.777 175.244 273.777 175.244C273.777 174.897 273.864 168.661 273.901 168.252L274.061 168.376C276.714 170.597 278.955 173.27 280.682 176.273C280.982 176.763 281.242 177.277 281.46 177.81C281.46 178.145 281.46 178.616 281.46 179.136Z" fill="#0F265C"/>
<path d="M284.313 188.533C284.202 198.711 262.821 201.252 262.08 201.339V201.116L262.228 200.211V199.975C262.648 199.975 269.479 199.38 278.619 193.777C280.101 192.884 282.596 190.467 282.979 183.946C283.03 183.028 283.005 182.108 282.905 181.194C282.843 180.698 282.769 180.215 282.708 179.781C282.522 178.729 282.27 177.69 281.954 176.669L282.263 176.731C282.595 176.807 282.919 176.919 283.226 177.066C283.712 178.119 283.969 179.265 283.98 180.426C283.991 180.458 283.991 180.493 283.98 180.525C284.271 183.184 284.383 185.859 284.313 188.533Z" fill="#0F265C"/>
<path d="M254.657 276.984H254.484C254.406 276.961 254.333 276.923 254.27 276.872C254.207 276.821 254.154 276.758 254.115 276.687C254.076 276.615 254.051 276.537 254.043 276.456C254.034 276.375 254.041 276.293 254.064 276.215L261.919 249.227C261.965 249.063 262.074 248.924 262.223 248.84C262.371 248.756 262.546 248.735 262.71 248.781C262.874 248.827 263.013 248.937 263.096 249.085C263.179 249.234 263.2 249.41 263.155 249.574L255.299 276.562C255.257 276.696 255.17 276.811 255.053 276.888C254.936 276.965 254.796 276.999 254.657 276.984Z" fill="#0F265C"/>
<path d="M284.363 277.393C284.933 278.477 285.396 279.615 285.746 280.789C287.969 288.128 285.647 295.752 287.278 303.178H302.532C303.039 289.157 303.953 271.926 305.002 255.835C305.002 255.748 305.002 255.661 305.002 255.574C305.008 255.492 305.008 255.409 305.002 255.326C305.002 255.203 305.002 255.091 305.002 255.004C304.996 254.913 304.996 254.822 305.002 254.731C304.996 254.694 304.996 254.657 305.002 254.62C305.089 252.983 305.188 251.372 305.299 249.76L304.706 248.843C303.755 247.441 302.653 246.148 301.42 244.988L300.828 244.442C299.462 243.189 297.811 242.291 296.02 241.827C294.228 241.362 292.35 241.345 290.551 241.777C279.595 244.851 277.927 254.942 279.965 264.872C280.874 269.222 282.353 273.432 284.363 277.393Z" fill="#0F265C"/>
<path d="M278.051 210.388C270.072 224.149 261.141 256.033 255.027 276.388C221.962 281.26 205.015 284.694 182.386 288.785C179.681 289.269 180.188 297.959 181.732 304.083H263.254L263.797 303.996C271.208 302.756 275.741 299.037 277.717 294.748C278.431 293.899 279.083 293 279.669 292.058C290.39 274.702 307.979 229.554 311.537 217.566C316.514 200.558 294.454 182.099 278.051 210.388Z" fill="white"/>
<path d="M182.386 289.38C182.223 289.395 182.06 289.344 181.933 289.238C181.807 289.132 181.728 288.981 181.713 288.816C181.698 288.652 181.749 288.488 181.855 288.362C181.96 288.235 182.111 288.155 182.275 288.141L194.849 285.822C213.056 282.45 230.262 279.265 260.153 274.95C260.315 274.929 260.479 274.971 260.61 275.068C260.741 275.165 260.83 275.31 260.857 275.471C260.869 275.553 260.865 275.636 260.845 275.716C260.825 275.796 260.789 275.871 260.739 275.936C260.69 276.002 260.628 276.057 260.557 276.099C260.486 276.14 260.408 276.167 260.326 276.178C230.459 280.492 213.266 283.678 195.072 287.037L182.498 289.38H182.386Z" fill="#0F265C"/>
<path d="M224.703 204.86L219.874 205.033L220.245 210.364C220.289 211.066 220.598 211.726 221.11 212.207C221.622 212.689 222.297 212.956 222.999 212.955L228.1 212.793L227.544 204.785L224.703 204.86ZM226.532 208.826H225.383L225.284 207.351H223.876L223.802 206.112L226.346 206.025L226.532 208.826Z" fill="#FFDD00"/>
<path d="M226.532 208.802H225.383L225.272 207.351H223.876L223.802 206.112L226.346 206.037L226.532 208.802Z" fill="#0F265C"/>
<path d="M294.788 114.252C294.792 115.261 294.499 116.249 293.943 117.091C293.388 117.932 292.596 118.589 291.668 118.978C290.74 119.367 289.718 119.471 288.731 119.276C287.745 119.081 286.838 118.597 286.126 117.884C285.414 117.171 284.929 116.262 284.732 115.272C284.536 114.283 284.637 113.256 285.022 112.324C285.407 111.392 286.06 110.596 286.897 110.036C287.734 109.477 288.718 109.179 289.723 109.182C291.064 109.182 292.351 109.716 293.3 110.666C294.249 111.617 294.784 112.906 294.788 114.252Z" fill="#0F265C"/>
<path d="M289.723 119.545C288.674 119.541 287.649 119.224 286.779 118.635C285.909 118.046 285.232 117.212 284.834 116.238C284.436 115.263 284.334 114.192 284.542 113.16C284.75 112.127 285.257 111.18 286.001 110.437C286.745 109.694 287.691 109.189 288.721 108.985C289.751 108.781 290.817 108.888 291.786 109.293C292.755 109.697 293.583 110.38 294.166 111.256C294.748 112.132 295.059 113.162 295.059 114.215C295.053 115.631 294.488 116.987 293.488 117.986C292.488 118.985 291.134 119.546 289.723 119.545ZM289.723 109.417C288.779 109.422 287.857 109.708 287.074 110.238C286.292 110.768 285.683 111.519 285.325 112.396C284.967 113.273 284.876 114.237 285.063 115.166C285.25 116.095 285.707 116.947 286.377 117.616C287.046 118.284 287.898 118.739 288.825 118.922C289.751 119.105 290.711 119.009 291.583 118.645C292.455 118.281 293.2 117.666 293.724 116.878C294.248 116.089 294.528 115.163 294.528 114.215C294.515 112.946 294.003 111.733 293.103 110.841C292.203 109.95 290.988 109.451 289.723 109.455V109.417Z" fill="#0F265C"/>
<path d="M268.935 150.698C266.364 153.799 263.158 156.308 259.535 158.056C255.912 159.803 251.956 160.748 247.937 160.826C232.732 160.826 223.851 151.467 223.345 134C223.091 127.665 223.26 121.32 223.851 115.008C225.086 100.132 239.069 89.4339 255.027 89.4339C270.751 89.4339 285.907 96.7727 285.45 115.008C284.993 133.244 277.335 138.562 277.335 138.562" fill="white"/>
<path d="M232.769 122.806C232.88 124.045 232.51 125.186 231.905 125.285C231.299 125.384 230.67 124.467 230.67 123.202C230.67 121.938 230.929 120.822 231.534 120.723C232.139 120.624 232.646 121.541 232.769 122.806Z" fill="#0F265C"/>
<path d="M231.806 126.24C231.466 126.237 231.137 126.124 230.867 125.917C230.499 125.588 230.2 125.188 229.988 124.741C229.776 124.294 229.655 123.809 229.632 123.314C229.447 121.492 230.101 120.054 231.225 119.818C231.441 119.778 231.662 119.783 231.875 119.835C232.087 119.886 232.287 119.982 232.461 120.116C232.829 120.445 233.128 120.845 233.34 121.292C233.552 121.739 233.673 122.224 233.696 122.719C233.856 124.554 233.202 125.992 232.09 126.215C231.997 126.236 231.901 126.244 231.806 126.24ZM231.608 121.938C231.501 122.342 231.472 122.763 231.522 123.178C231.559 123.509 231.638 123.834 231.757 124.145C231.868 123.741 231.897 123.32 231.843 122.905C231.818 122.572 231.739 122.245 231.608 121.938Z" fill="#0F265C"/>
<path d="M250.852 121.752C250.926 122.992 250.482 124.12 249.877 124.231C249.271 124.343 248.74 123.364 248.641 122.087C248.543 120.81 249.012 119.731 249.617 119.607C250.222 119.483 250.803 120.488 250.852 121.752Z" fill="#0F265C"/>
<path d="M249.802 125.149C249.437 125.142 249.084 125.011 248.802 124.777C248.119 124.06 247.743 123.103 247.752 122.112C247.666 120.562 248.246 118.888 249.518 118.69C249.739 118.658 249.963 118.675 250.177 118.739C250.39 118.803 250.587 118.914 250.754 119.062C251.094 119.413 251.362 119.828 251.542 120.283C251.722 120.739 251.811 121.225 251.803 121.715C251.878 123.264 251.309 124.926 250.037 125.124L249.802 125.149ZM249.802 120.835C249.674 121.235 249.624 121.655 249.654 122.074C249.67 122.405 249.736 122.731 249.852 123.041C249.974 122.64 250.02 122.22 249.988 121.802C249.969 121.45 249.885 121.106 249.741 120.785L249.802 120.835Z" fill="#0F265C"/>
<path d="M241.761 146.459C240.49 146.455 239.231 146.202 238.056 145.715C237.982 145.682 237.916 145.634 237.861 145.574C237.806 145.515 237.763 145.445 237.736 145.369C237.708 145.292 237.696 145.211 237.7 145.13C237.704 145.049 237.724 144.97 237.759 144.897C237.827 144.747 237.95 144.631 238.103 144.573C238.256 144.515 238.426 144.52 238.575 144.587C239.901 145.162 241.363 145.351 242.791 145.132C244.22 144.913 245.558 144.294 246.653 143.347C246.71 143.289 246.778 143.243 246.854 143.211C246.929 143.18 247.01 143.164 247.091 143.164C247.173 143.164 247.253 143.18 247.329 143.211C247.404 143.243 247.472 143.289 247.53 143.347C247.587 143.404 247.633 143.471 247.664 143.546C247.695 143.62 247.711 143.7 247.711 143.781C247.711 143.862 247.695 143.942 247.664 144.016C247.633 144.091 247.587 144.158 247.53 144.215C245.97 145.685 243.901 146.49 241.761 146.459Z" fill="#0F265C"/>
<path d="M247.9 161.446C232.152 161.446 223.197 151.702 222.69 134.012C222.443 127.653 222.616 121.283 223.209 114.946C224.444 100.07 238.13 88.814 254.99 88.814C265.502 88.814 274.308 91.9256 279.78 97.5909C284.128 102.066 286.228 107.93 286.03 115.021C285.524 133.355 277.977 138.835 277.656 139.058C277.59 139.105 277.516 139.139 277.438 139.157C277.359 139.175 277.278 139.177 277.198 139.163C277.119 139.149 277.043 139.12 276.975 139.076C276.908 139.033 276.849 138.976 276.803 138.909C276.756 138.842 276.722 138.767 276.704 138.687C276.686 138.608 276.684 138.525 276.697 138.444C276.711 138.364 276.741 138.286 276.784 138.217C276.828 138.148 276.885 138.088 276.952 138.041C277.026 138.041 284.301 132.624 284.795 114.996C284.98 108.252 283.004 102.686 278.903 98.4463C273.654 93.0413 265.168 90.0537 254.99 90.0537C238.785 90.0537 225.642 100.802 224.432 115.058C223.847 121.341 223.678 127.657 223.925 133.963C224.42 150.897 232.93 160.207 247.9 160.207C251.846 160.183 255.742 159.316 259.329 157.664C262.915 156.012 266.11 153.612 268.701 150.624C268.809 150.499 268.962 150.422 269.126 150.411C269.291 150.399 269.453 150.453 269.578 150.562C269.702 150.67 269.779 150.824 269.79 150.989C269.802 151.154 269.747 151.317 269.639 151.442C266.931 154.563 263.591 157.069 259.843 158.793C256.095 160.518 252.024 161.423 247.9 161.446Z" fill="#0F265C"/>
<path d="M273.505 138.81C274.234 139.354 275.131 139.622 276.038 139.566C281.608 139.058 289.217 134.496 290.983 129.438C293.268 123.612 290.477 119.062 284.906 119.521C281.322 119.945 278.045 121.76 275.778 124.578" fill="white"/>
<path d="M276.075 140.186C274.988 140.258 273.914 139.922 273.061 139.244C272.945 139.127 272.879 138.969 272.879 138.804C272.879 138.639 272.945 138.48 273.061 138.364C273.177 138.247 273.335 138.181 273.499 138.181C273.664 138.181 273.821 138.247 273.938 138.364C274.551 138.793 275.292 138.998 276.038 138.946C281.238 138.463 288.698 134.124 290.403 129.227C291.514 126.401 291.416 123.81 290.131 122.099C289.509 121.355 288.704 120.787 287.797 120.45C286.89 120.113 285.91 120.019 284.956 120.178C281.892 120.388 278.965 122.025 276.235 125.037C276.18 125.096 276.113 125.144 276.038 125.176C275.964 125.208 275.884 125.225 275.803 125.225C275.722 125.225 275.642 125.208 275.567 125.176C275.493 125.144 275.426 125.096 275.371 125.037C275.313 124.98 275.267 124.911 275.235 124.835C275.204 124.76 275.188 124.679 275.188 124.597C275.188 124.515 275.204 124.434 275.235 124.359C275.267 124.283 275.313 124.215 275.371 124.157C278.31 120.897 281.546 119.124 284.918 118.901C286.079 118.717 287.267 118.843 288.364 119.265C289.461 119.687 290.428 120.391 291.168 121.306C292.712 123.376 292.873 126.401 291.613 129.612C289.723 134.992 281.892 139.616 276.136 140.136L276.075 140.186Z" fill="#0F265C"/>
<path d="M262.352 99.314C262.357 100.323 262.063 101.31 261.508 102.151C260.953 102.993 260.162 103.649 259.235 104.039C258.308 104.428 257.286 104.533 256.3 104.339C255.314 104.145 254.407 103.662 253.694 102.95C252.982 102.239 252.496 101.331 252.298 100.342C252.1 99.353 252.199 98.3273 252.583 97.3948C252.966 96.4624 253.617 95.6652 254.452 95.1042C255.288 94.5433 256.27 94.2438 257.275 94.2438C257.951 94.2025 258.627 94.3051 259.26 94.545C259.893 94.7848 260.468 95.1564 260.947 95.6354C261.427 96.1143 261.8 96.6897 262.042 97.3238C262.284 97.9578 262.39 98.6361 262.352 99.314Z" fill="#0F265C"/>
<path d="M257.275 104.669C255.867 104.669 254.516 104.108 253.52 103.108C252.524 102.108 251.964 100.753 251.964 99.3388C251.964 97.9251 252.524 96.5692 253.52 95.5696C254.516 94.5699 255.867 94.0082 257.275 94.0082C257.931 93.9468 258.593 94.0255 259.217 94.2392C259.841 94.4528 260.412 94.7966 260.894 95.2479C261.447 95.7761 261.885 96.4133 262.18 97.1194C262.476 97.8256 262.622 98.5854 262.611 99.3512C262.601 100.765 262.035 102.118 261.035 103.114C260.036 104.11 258.684 104.669 257.275 104.669ZM257.695 94.5165H257.3C256.355 94.5165 255.43 94.7979 254.644 95.325C253.858 95.8522 253.245 96.6015 252.884 97.4781C252.522 98.3547 252.427 99.3193 252.612 100.25C252.796 101.181 253.251 102.035 253.92 102.706C254.588 103.377 255.44 103.834 256.367 104.019C257.295 104.204 258.256 104.109 259.129 103.746C260.003 103.383 260.749 102.768 261.274 101.979C261.8 101.19 262.08 100.263 262.08 99.314C262.096 98.6202 261.967 97.9307 261.701 97.2901C261.435 96.6494 261.038 96.072 260.536 95.595C259.762 94.8802 258.747 94.486 257.695 94.4917V94.5165Z" fill="#0F265C"/>
<path d="M252.458 96.5248C252.465 97.5346 252.174 98.5238 251.62 99.3669C251.066 100.21 250.275 100.869 249.347 101.26C248.419 101.651 247.397 101.756 246.409 101.563C245.422 101.369 244.514 100.886 243.801 100.174C243.087 99.4612 242.601 98.5523 242.404 97.5622C242.206 96.572 242.306 95.5453 242.691 94.6123C243.076 93.6794 243.729 92.8823 244.566 92.3223C245.404 91.7622 246.388 91.4646 247.394 91.467C248.733 91.467 250.017 91.9991 250.966 92.9469C251.915 93.8947 252.452 95.1811 252.458 96.5248Z" fill="#0F265C"/>
<path d="M247.394 101.855C246.344 101.851 245.32 101.534 244.45 100.945C243.58 100.356 242.903 99.5221 242.505 98.5476C242.106 97.5732 242.005 96.5021 242.212 95.4698C242.42 94.4374 242.928 93.4899 243.672 92.7468C244.415 92.0038 245.362 91.4986 246.391 91.2949C247.421 91.0912 248.488 91.1982 249.457 91.6024C250.426 92.0066 251.254 92.6898 251.836 93.5659C252.419 94.442 252.73 95.4716 252.73 96.5248C252.723 97.9408 252.158 99.2966 251.158 100.296C250.158 101.295 248.805 101.855 247.394 101.855ZM247.394 91.7273C246.449 91.7322 245.528 92.0177 244.745 92.5479C243.962 93.078 243.353 93.829 242.995 94.706C242.637 95.5831 242.546 96.5469 242.733 97.4759C242.92 98.4048 243.378 99.2574 244.047 99.9258C244.717 100.594 245.568 101.049 246.495 101.232C247.422 101.415 248.381 101.319 249.253 100.955C250.125 100.591 250.871 99.976 251.395 99.1876C251.919 98.3992 252.199 97.4726 252.199 96.5248C252.197 95.8932 252.071 95.268 251.829 94.6851C251.587 94.1021 251.232 93.5728 250.786 93.1273C250.34 92.6818 249.811 92.3289 249.229 92.0887C248.647 91.8485 248.023 91.7257 247.394 91.7273Z" fill="#0F265C"/>
<path d="M244.602 98.2975C244.61 99.3073 244.318 100.296 243.764 101.14C243.21 101.983 242.419 102.641 241.491 103.032C240.564 103.423 239.541 103.529 238.554 103.335C237.566 103.142 236.658 102.658 235.945 101.946C235.232 101.234 234.746 100.325 234.548 99.3348C234.351 98.3447 234.451 97.3179 234.836 96.385C235.221 95.452 235.873 94.655 236.711 94.0949C237.548 93.5349 238.532 93.2372 239.538 93.2396C240.212 93.1963 240.888 93.2972 241.52 93.5358C242.152 93.7743 242.727 94.1449 243.206 94.6231C243.685 95.1013 244.057 95.6762 244.298 96.3097C244.538 96.9431 244.642 97.6207 244.602 98.2975Z" fill="#0F265C"/>
<path d="M239.538 103.628C238.129 103.628 236.779 103.067 235.782 102.067C234.786 101.067 234.227 99.7113 234.227 98.2975C234.227 96.8838 234.786 95.5279 235.782 94.5282C236.779 93.5286 238.129 92.967 239.538 92.967C240.192 92.9081 240.851 92.988 241.473 93.2016C242.094 93.4152 242.664 93.7576 243.145 94.2066C243.701 94.7328 244.142 95.3693 244.439 96.0757C244.737 96.7822 244.885 97.543 244.874 98.3099C244.864 99.7238 244.298 101.076 243.298 102.073C242.298 103.069 240.947 103.628 239.538 103.628ZM239.958 93.4752H239.563C238.617 93.4752 237.693 93.7566 236.907 94.2838C236.121 94.8109 235.508 95.5602 235.147 96.4368C234.785 97.3134 234.69 98.2781 234.875 99.2087C235.059 100.139 235.514 100.994 236.183 101.665C236.851 102.336 237.703 102.793 238.63 102.978C239.558 103.163 240.519 103.068 241.392 102.705C242.266 102.342 243.012 101.727 243.537 100.938C244.063 100.149 244.343 99.2216 244.343 98.2727C244.358 97.578 244.227 96.8879 243.959 96.2472C243.691 95.6065 243.291 95.0296 242.787 94.5537C242.006 93.8643 240.997 93.4929 239.958 93.5124V93.4752Z" fill="#0F265C"/>
<path d="M237.512 102.091C237.52 103.1 237.228 104.089 236.675 104.932C236.122 105.774 235.331 106.433 234.404 106.825C233.477 107.216 232.456 107.322 231.468 107.13C230.481 106.937 229.573 106.455 228.859 105.744C228.146 105.033 227.659 104.125 227.46 103.136C227.261 102.147 227.359 101.12 227.742 100.187C228.125 99.2539 228.776 98.4559 229.612 97.8944C230.447 97.3329 231.43 97.0331 232.436 97.0331C233.776 97.033 235.061 97.5647 236.012 98.5122C236.963 99.4597 237.503 100.746 237.512 102.091Z" fill="#0F265C"/>
<path d="M232.436 107.421C231.386 107.417 230.362 107.1 229.492 106.511C228.622 105.922 227.945 105.088 227.546 104.114C227.148 103.139 227.047 102.068 227.254 101.036C227.462 100.003 227.97 99.0559 228.714 98.3129C229.457 97.5699 230.404 97.0647 231.433 96.861C232.463 96.6573 233.53 96.7643 234.499 97.1685C235.468 97.5727 236.296 98.2559 236.878 99.132C237.461 100.008 237.772 101.038 237.772 102.091C237.765 103.507 237.2 104.863 236.2 105.862C235.2 106.861 233.847 107.421 232.436 107.421ZM232.436 97.2933C231.491 97.2982 230.57 97.5838 229.787 98.1139C229.004 98.644 228.395 99.395 228.037 100.272C227.679 101.149 227.588 102.113 227.775 103.042C227.962 103.971 228.42 104.823 229.089 105.492C229.759 106.16 230.61 106.615 231.537 106.798C232.464 106.981 233.423 106.885 234.295 106.521C235.167 106.157 235.913 105.542 236.437 104.754C236.961 103.965 237.241 103.039 237.241 102.091C237.234 100.816 236.725 99.596 235.825 98.697C234.924 97.798 233.706 97.2933 232.436 97.2933Z" fill="#0F265C"/>
<path d="M269.195 105.128C269.202 106.137 268.911 107.126 268.357 107.969C267.804 108.812 267.014 109.47 266.087 109.862C265.16 110.253 264.138 110.359 263.151 110.167C262.163 109.975 261.255 109.492 260.542 108.781C259.828 108.07 259.341 107.162 259.142 106.173C258.943 105.184 259.041 104.157 259.425 103.224C259.808 102.291 260.458 101.493 261.294 100.932C262.13 100.37 263.113 100.07 264.118 100.07C265.458 100.07 266.744 100.602 267.695 101.549C268.646 102.497 269.185 103.783 269.195 105.128Z" fill="#0F265C"/>
<path d="M264.168 110.459C263.118 110.454 262.094 110.137 261.223 109.548C260.353 108.96 259.676 108.125 259.278 107.151C258.88 106.176 258.778 105.105 258.986 104.073C259.194 103.041 259.702 102.093 260.445 101.35C261.189 100.607 262.135 100.102 263.165 99.8982C264.195 99.6946 265.261 99.8016 266.23 100.206C267.199 100.61 268.028 101.293 268.61 102.169C269.193 103.045 269.503 104.075 269.503 105.128C269.502 105.83 269.363 106.524 269.094 107.172C268.824 107.819 268.431 108.408 267.935 108.903C267.44 109.398 266.852 109.79 266.206 110.057C265.559 110.324 264.867 110.46 264.168 110.459ZM264.168 100.331C263.223 100.336 262.301 100.621 261.519 101.151C260.736 101.681 260.127 102.432 259.769 103.309C259.411 104.186 259.32 105.15 259.507 106.079C259.694 107.008 260.151 107.861 260.821 108.529C261.49 109.198 262.342 109.652 263.269 109.835C264.195 110.018 265.155 109.922 266.027 109.558C266.899 109.194 267.644 108.579 268.168 107.791C268.693 107.003 268.972 106.076 268.972 105.128C268.966 103.853 268.457 102.633 267.556 101.734C266.656 100.835 265.438 100.331 264.168 100.331Z" fill="#0F265C"/>
<path d="M275.025 111.711C275.032 112.72 274.741 113.709 274.187 114.551C273.634 115.394 272.844 116.053 271.917 116.444C270.99 116.836 269.968 116.942 268.981 116.75C267.994 116.557 267.085 116.075 266.372 115.364C265.658 114.653 265.171 113.745 264.972 112.756C264.773 111.766 264.871 110.74 265.255 109.807C265.638 108.874 266.288 108.076 267.124 107.514C267.96 106.953 268.943 106.653 269.948 106.653C271.288 106.653 272.574 107.185 273.525 108.132C274.476 109.079 275.015 110.366 275.025 111.711Z" fill="#0F265C"/>
<path d="M269.948 117.066C268.899 117.061 267.874 116.744 267.004 116.156C266.134 115.567 265.457 114.733 265.059 113.758C264.661 112.784 264.559 111.713 264.767 110.68C264.974 109.648 265.482 108.701 266.226 107.958C266.97 107.215 267.916 106.709 268.946 106.506C269.975 106.302 271.042 106.409 272.011 106.813C272.98 107.217 273.808 107.901 274.391 108.777C274.973 109.653 275.284 110.682 275.284 111.736C275.278 113.152 274.713 114.507 273.713 115.506C272.713 116.505 271.359 117.066 269.948 117.066ZM269.948 106.938C269.004 106.943 268.082 107.228 267.299 107.759C266.516 108.289 265.908 109.04 265.55 109.917C265.192 110.794 265.1 111.758 265.288 112.687C265.475 113.616 265.932 114.468 266.602 115.137C267.271 115.805 268.123 116.259 269.049 116.443C269.976 116.626 270.936 116.529 271.808 116.165C272.68 115.802 273.425 115.187 273.949 114.398C274.473 113.61 274.753 112.683 274.753 111.736C274.753 110.457 274.247 109.23 273.346 108.326C272.445 107.421 271.222 106.913 269.948 106.913V106.938Z" fill="#0F265C"/>
<path d="M278.817 119.31C278.822 120.316 278.529 121.301 277.975 122.14C277.422 122.979 276.633 123.635 275.708 124.023C274.783 124.412 273.764 124.516 272.78 124.323C271.796 124.129 270.891 123.647 270.18 122.937C269.47 122.228 268.985 121.322 268.787 120.335C268.59 119.349 268.689 118.326 269.071 117.395C269.454 116.465 270.103 115.67 270.936 115.11C271.77 114.551 272.75 114.252 273.753 114.252C275.091 114.252 276.376 114.784 277.325 115.732C278.274 116.68 278.81 117.966 278.817 119.31Z" fill="#0F265C"/>
<path d="M273.752 124.64C272.703 124.636 271.679 124.319 270.808 123.73C269.938 123.141 269.261 122.307 268.863 121.333C268.465 120.358 268.363 119.287 268.571 118.255C268.779 117.222 269.287 116.275 270.03 115.532C270.774 114.789 271.72 114.284 272.75 114.08C273.78 113.876 274.846 113.983 275.815 114.387C276.784 114.792 277.613 115.475 278.195 116.351C278.778 117.227 279.088 118.257 279.088 119.31C279.082 120.726 278.517 122.082 277.517 123.081C276.517 124.08 275.163 124.64 273.752 124.64ZM273.752 114.512C272.808 114.517 271.886 114.803 271.104 115.333C270.321 115.863 269.712 116.614 269.354 117.491C268.996 118.368 268.905 119.332 269.092 120.261C269.279 121.19 269.736 122.042 270.406 122.711C271.075 123.379 271.927 123.834 272.854 124.017C273.78 124.2 274.74 124.104 275.612 123.74C276.484 123.376 277.229 122.761 277.753 121.973C278.278 121.184 278.557 120.258 278.557 119.31C278.551 118.035 278.042 116.815 277.141 115.916C276.241 115.017 275.023 114.512 273.752 114.512Z" fill="#0F265C"/>
<path d="M240.699 140.012H240.477C237.587 138.922 232.732 136.826 232.732 135.128C232.732 133.43 237.895 127.616 239.489 125.855C239.541 125.79 239.607 125.735 239.681 125.696C239.756 125.656 239.837 125.632 239.921 125.626C240.005 125.619 240.09 125.63 240.169 125.657C240.249 125.684 240.322 125.727 240.385 125.784C240.447 125.841 240.497 125.91 240.532 125.987C240.567 126.063 240.586 126.147 240.588 126.231C240.589 126.316 240.574 126.399 240.542 126.478C240.51 126.556 240.463 126.627 240.403 126.686C237.339 130.095 234.017 134.285 233.967 135.141C234.128 135.76 237.377 137.521 240.921 138.86C240.998 138.887 241.067 138.93 241.127 138.985C241.186 139.04 241.234 139.106 241.268 139.18C241.301 139.254 241.319 139.334 241.321 139.415C241.323 139.497 241.309 139.577 241.28 139.653C241.227 139.762 241.145 139.855 241.042 139.918C240.939 139.982 240.82 140.015 240.699 140.012Z" fill="#0F265C"/>
<path d="M223.061 124.876C222.371 124.357 221.825 123.671 221.474 122.881C221.123 122.092 220.978 121.225 221.053 120.364C221.129 119.503 221.422 118.675 221.905 117.959C222.388 117.243 223.045 116.663 223.814 116.273" fill="#0F265C"/>
<path d="M287.302 87.8224C276.186 78.4505 259.671 81.5621 259.511 81.624C259.469 81.6324 259.429 81.6517 259.397 81.6799C259.364 81.7082 259.34 81.7445 259.326 81.7852L259.264 81.934C258.955 80.8183 258.659 79.4546 258.288 77.8307C257.053 72.0166 250.198 73.2687 246.9 74.0249C245.319 73.6034 243.478 73.1447 242.577 73.0207C238.772 72.2645 236.747 73.2687 233.93 76.0579C233.214 76.6377 232.692 77.4235 232.433 78.3099C232.175 79.1963 232.193 80.1408 232.485 81.0166C230.382 81.6699 228.612 83.1133 227.544 85.0455C222.604 90.0042 216.65 100.281 222.604 118.194C222.619 118.246 222.65 118.291 222.692 118.325C222.734 118.358 222.785 118.377 222.838 118.38C222.902 118.371 222.959 118.337 222.998 118.286C223.038 118.236 223.056 118.171 223.048 118.108C223.048 117.996 222.147 106.095 230.46 101.905C230.97 101.691 231.402 101.323 231.695 100.851C232.105 100.908 232.52 100.908 232.93 100.851C235.968 100.603 241.045 99.0786 246.109 99.8472C250.642 100.517 255.571 102.401 256.571 100.442C256.755 100.584 256.949 100.713 257.152 100.827C263.955 104.408 269.966 109.336 274.821 115.312C279.675 121.288 283.274 128.189 285.4 135.599C285.423 135.665 285.466 135.721 285.524 135.76C286.43 136.241 287.439 136.492 288.463 136.492C289.445 136.492 290.41 136.24 291.267 135.76C295.133 133.603 297.246 127.083 297.567 116.298C297.814 103.331 294.355 93.7604 287.302 87.8224Z" fill="#FFDD00"/>
<path d="M262.858 87.6611C267.313 86.7894 271.908 86.9634 276.285 88.1694L262.858 87.6611Z" fill="#FFDD00"/>
<path d="M288.698 108.004C286.121 104.013 282.696 100.644 278.668 98.1389C274.641 95.6334 270.11 94.0535 265.403 93.5124C265.235 91.4817 264.475 89.5456 263.216 87.9463C267.532 87.1613 271.968 87.3561 276.198 88.5165H276.272C276.344 88.517 276.413 88.4916 276.467 88.445C276.521 88.3983 276.557 88.3337 276.567 88.2628C276.578 88.192 276.562 88.1197 276.524 88.0593C276.486 87.9989 276.427 87.9543 276.359 87.9339C271.929 86.7174 267.279 86.5435 262.772 87.4256C260.301 85.0826 259.807 83.2355 258.609 77.7562C258.478 77.017 258.198 76.3125 257.786 75.6858C257.374 75.0591 256.838 74.5234 256.213 74.1116C253.607 72.4504 249.691 73.0826 246.924 73.7025C245.368 73.2934 243.565 72.8347 242.663 72.7107C238.599 71.905 236.487 73.1198 233.77 75.8347C233.064 76.4251 232.539 77.2045 232.257 78.0823C231.975 78.9601 231.947 79.9002 232.176 80.7934L231.868 80.8802C230.205 81.584 228.764 82.729 227.7 84.1922C226.636 85.6554 225.988 87.3817 225.828 89.186C225.025 94.1446 227.359 96.1777 228.496 96.8347C221.887 100.145 222.32 108.661 222.32 108.748C222.32 108.786 222.327 108.825 222.342 108.86C222.358 108.895 222.38 108.927 222.407 108.954C222.435 108.981 222.468 109.001 222.504 109.015C222.54 109.029 222.578 109.035 222.616 109.033C222.696 109.027 222.77 108.99 222.823 108.929C222.876 108.869 222.904 108.791 222.9 108.711C222.9 108.624 222.53 100.405 228.891 97.3182C228.847 98.3742 229.215 99.4057 229.916 100.194C230.33 100.574 230.823 100.858 231.359 101.025C231.895 101.192 232.461 101.239 233.016 101.161C233.906 101.099 234.931 100.913 236.129 100.715C239.413 99.9964 242.791 99.8081 246.134 100.157C247.369 100.331 248.604 100.603 249.839 100.876C251.397 101.281 252.989 101.534 254.595 101.632C255.268 101.682 255.938 101.503 256.497 101.124C256.671 100.98 256.814 100.803 256.917 100.603C257.021 100.403 257.084 100.184 257.102 99.9587C257.974 100.154 258.864 100.258 259.758 100.269C260.751 100.366 261.75 100.176 262.639 99.7213C263.528 99.2665 264.268 98.566 264.773 97.7025C264.919 97.434 265.039 97.1516 265.131 96.8595C289.909 107.05 286.487 133.727 286.45 133.988C286.443 134.027 286.444 134.067 286.453 134.106C286.461 134.145 286.478 134.181 286.501 134.214C286.524 134.246 286.553 134.273 286.587 134.294C286.62 134.315 286.658 134.329 286.697 134.335C286.769 134.333 286.838 134.306 286.892 134.258C286.946 134.211 286.982 134.146 286.994 134.074C286.994 133.802 290.526 106.628 265.254 96.2892C265.424 95.5752 265.495 94.841 265.464 94.1075C270.069 94.6603 274.494 96.2271 278.425 98.6958C282.356 101.165 285.696 104.474 288.204 108.388C288.231 108.43 288.267 108.464 288.31 108.488C288.354 108.512 288.402 108.524 288.451 108.525C288.504 108.537 288.559 108.537 288.612 108.525C288.663 108.508 288.709 108.477 288.745 108.436C288.78 108.395 288.803 108.344 288.812 108.291C288.821 108.237 288.815 108.182 288.795 108.131C288.775 108.081 288.741 108.037 288.698 108.004ZM234.165 76.2314C236.24 74.1612 237.871 73.0454 240.341 73.0454C241.068 73.0512 241.792 73.1302 242.503 73.281C243.207 73.3802 244.466 73.6777 245.726 74C244.299 74.4203 242.98 75.1468 241.861 76.1293C240.741 77.1118 239.847 78.3268 239.242 79.6901C238.9 80.3716 238.791 81.1471 238.933 81.8967C238.039 81.2548 237.021 80.8066 235.945 80.5803C234.87 80.3541 233.758 80.3549 232.683 80.5827C232.493 79.791 232.531 78.9614 232.794 78.1908C233.056 77.4203 233.532 76.7407 234.165 76.2314ZM226.396 89.2232C226.545 87.5259 227.15 85.9009 228.146 84.5213C229.142 83.1416 230.492 82.0589 232.053 81.3884C233.302 80.9726 234.639 80.8982 235.926 81.1727C237.214 81.4472 238.405 82.0608 239.377 82.9504C237.413 83.5226 235.627 84.5895 234.19 86.0496C231.245 88.7291 229.367 92.3888 228.903 96.3513C228.002 95.905 225.593 94.219 226.396 89.2232ZM256.04 100.616C255.101 101.384 252.569 100.826 249.864 100.244C248.629 99.9835 247.394 99.7108 246.159 99.5248C245.157 99.3709 244.145 99.2963 243.132 99.3017C240.727 99.3568 238.33 99.618 235.968 100.083C234.733 100.281 233.77 100.455 232.918 100.529C232.448 100.595 231.97 100.558 231.515 100.421C231.061 100.284 230.642 100.05 230.287 99.7355C229.989 99.3988 229.761 99.0065 229.614 98.5811C229.468 98.1556 229.407 97.7054 229.434 97.2562C229.434 92.9049 232.102 88.8265 234.597 86.4711C236.747 84.438 239.081 83.2975 240.773 83.3843C243.688 83.5578 245.553 86.3471 248.37 90.5744C249.531 92.3223 250.84 94.2934 252.47 96.438C253.547 97.8062 254.903 98.9265 256.448 99.7232C256.454 99.8924 256.422 100.061 256.354 100.216C256.285 100.371 256.182 100.507 256.052 100.616H256.04ZM264.18 97.3678C263.031 99.4628 260.474 100.12 256.855 99.2769C255.334 98.5141 253.998 97.4267 252.94 96.0909C251.334 93.9711 250.025 92.0124 248.864 90.2645C245.949 85.8884 244.022 83 240.81 82.8265C240.593 82.8081 240.373 82.8081 240.156 82.8265C239.786 82.4616 239.553 81.9797 239.497 81.4623C239.441 80.9449 239.564 80.4239 239.847 79.9876C240.499 78.5405 241.488 77.2716 242.73 76.2879C243.973 75.3042 245.432 74.6344 246.986 74.3347C249.642 73.7273 253.459 73.095 255.904 74.6446C256.463 75.0116 256.941 75.4907 257.306 76.0518C257.672 76.6129 257.918 77.2438 258.029 77.905C259.264 83.6446 259.82 85.5785 262.685 88.1818C263.995 89.748 264.77 91.6946 264.896 93.7355C265.001 94.9911 264.749 96.2508 264.168 97.3678H264.18Z" fill="#0F265C"/>
<path d="M227.174 115.703C227.01 115.716 226.848 115.663 226.723 115.556C226.598 115.449 226.52 115.297 226.507 115.132C226.494 114.968 226.546 114.805 226.653 114.679C226.759 114.554 226.911 114.476 227.075 114.463L234.486 113.223C234.65 113.197 234.817 113.237 234.952 113.335C235.086 113.432 235.176 113.579 235.203 113.744C235.229 113.908 235.189 114.076 235.092 114.211C234.994 114.346 234.848 114.437 234.684 114.463L227.273 115.703H227.174ZM255.299 114.959L246.937 114.45C246.856 114.447 246.777 114.428 246.704 114.394C246.631 114.359 246.565 114.311 246.511 114.251C246.457 114.191 246.416 114.12 246.389 114.044C246.362 113.968 246.351 113.887 246.356 113.806C246.356 113.723 246.373 113.64 246.406 113.564C246.44 113.488 246.49 113.42 246.552 113.365C246.614 113.31 246.687 113.269 246.766 113.244C246.845 113.22 246.929 113.213 247.011 113.223L255.373 113.719C255.454 113.724 255.534 113.745 255.607 113.78C255.68 113.816 255.745 113.866 255.799 113.927C255.853 113.988 255.895 114.059 255.921 114.136C255.948 114.213 255.959 114.295 255.954 114.376C255.949 114.457 255.928 114.537 255.893 114.611C255.857 114.684 255.808 114.75 255.747 114.804C255.686 114.858 255.615 114.899 255.538 114.926C255.461 114.953 255.38 114.964 255.299 114.959Z" fill="#0F265C"/>
<path d="M239.069 298.665C239.069 296.607 238.031 294.946 236.747 294.946H102.458C101.223 294.946 100.136 296.607 100.136 298.665C100.136 300.723 101.174 302.384 102.458 302.384H236.759C238.031 302.384 239.069 300.723 239.069 298.665Z" fill="white"/>
<path d="M99.5306 300.686C99.8202 301.422 100.311 302.06 100.948 302.528C101.584 302.995 102.339 303.272 103.125 303.326H203.174C203.491 303.343 203.806 303.275 204.088 303.129C204.369 302.983 204.606 302.764 204.775 302.494C204.944 302.225 205.038 301.916 205.048 301.598C205.057 301.28 204.982 300.965 204.829 300.686L180.015 233.074C179.725 232.339 179.234 231.7 178.598 231.233C177.962 230.766 177.207 230.489 176.42 230.434H76.4204C76.1039 230.417 75.7886 230.485 75.5071 230.631C75.2256 230.778 74.9882 230.997 74.8195 231.266C74.6507 231.535 74.5567 231.845 74.5472 232.163C74.5376 232.481 74.6129 232.795 74.7652 233.074L99.5306 300.686Z" fill="white"/>
<path d="M312.401 302.893H237.414C238.723 302.459 239.686 300.76 239.686 298.665C239.686 296.186 238.451 294.326 236.747 294.326H203.113L180.558 232.851C180.224 231.997 179.654 231.257 178.914 230.719C178.174 230.181 177.296 229.867 176.383 229.814H76.4205C76.0276 229.794 75.6359 229.872 75.2803 230.04C74.9247 230.209 74.6162 230.464 74.3824 230.781C74.1569 231.149 74.0215 231.566 73.9871 231.997C73.9528 232.428 74.0205 232.861 74.1848 233.26L98.9995 300.872C99.305 301.656 99.8122 302.345 100.469 302.868H88.8834C88.7196 302.868 88.5625 302.933 88.4467 303.049C88.3309 303.165 88.2658 303.323 88.2658 303.488C88.2658 303.652 88.3309 303.81 88.4467 303.926C88.5625 304.042 88.7196 304.107 88.8834 304.107H312.451C312.614 304.107 312.771 304.042 312.887 303.926C313.003 303.81 313.068 303.652 313.068 303.488C313.065 303.404 313.045 303.322 313.01 303.246C312.974 303.17 312.924 303.103 312.861 303.047C312.799 302.991 312.726 302.949 312.647 302.923C312.568 302.896 312.484 302.886 312.401 302.893ZM236.747 295.578C237.549 295.578 238.451 296.818 238.451 298.678C238.451 300.537 237.562 301.777 236.759 301.777H205.571C205.586 301.355 205.519 300.933 205.373 300.537L203.57 295.578H236.747ZM204.163 302.273C204.039 302.423 203.881 302.541 203.703 302.619C203.525 302.696 203.331 302.731 203.137 302.719H103.088C102.428 302.663 101.796 302.423 101.264 302.027C100.731 301.63 100.319 301.093 100.074 300.475L75.2965 232.851C75.1901 232.64 75.1346 232.406 75.1346 232.169C75.1346 231.932 75.1901 231.699 75.2965 231.488C75.4378 231.336 75.6148 231.223 75.8112 231.158C76.0075 231.093 76.2171 231.078 76.4205 231.116H176.47C177.129 231.17 177.761 231.407 178.293 231.801C178.825 232.195 179.238 232.731 179.484 233.347L204.298 300.959C204.374 301.172 204.402 301.4 204.378 301.625C204.355 301.85 204.281 302.067 204.163 302.26V302.273Z" fill="#0F265C"/>
<path d="M127.544 263.409C126.922 263.345 126.293 263.451 125.726 263.717C125.158 263.982 124.673 264.397 124.321 264.916C123.969 265.436 123.763 266.041 123.726 266.669C123.689 267.296 123.822 267.922 124.111 268.479C124.691 269.806 125.631 270.942 126.824 271.76C128.016 272.577 129.412 273.043 130.855 273.103C131.471 273.139 132.087 273.019 132.646 272.755C133.204 272.491 133.688 272.091 134.054 271.591C134.385 271.061 134.578 270.457 134.615 269.833C134.651 269.209 134.531 268.585 134.264 268.021C133.687 266.697 132.751 265.564 131.563 264.748C130.375 263.933 128.982 263.469 127.544 263.409Z" fill="#ECECED"/>
<path d="M135.487 261.413C135.22 260.814 134.792 260.302 134.251 259.934C133.71 259.566 133.077 259.357 132.423 259.331C132.116 259.316 131.811 259.378 131.533 259.509C131.255 259.641 131.014 259.839 130.83 260.087C130.666 260.352 130.569 260.653 130.547 260.964C130.525 261.275 130.58 261.587 130.707 261.872C130.972 262.472 131.4 262.987 131.941 263.357C132.482 263.727 133.116 263.938 133.77 263.967C134.078 263.979 134.384 263.915 134.662 263.781C134.939 263.647 135.18 263.447 135.363 263.198C135.524 262.932 135.62 262.631 135.641 262.321C135.663 262.01 135.61 261.699 135.487 261.413Z" fill="#ECECED"/>
</svg>
